<svg width="834" height="834" viewBox="0 0 834 834" fill="none" xmlns="http://www.w3.org/2000/svg">
<path d="M420.196 713.809C643.003 713.809 823.624 703.263 823.624 690.255C823.624 677.247 643.003 666.701 420.196 666.701C197.389 666.701 16.7682 677.247 16.7682 690.255C16.7682 703.263 197.389 713.809 420.196 713.809Z" fill="#F5F5F5"/>
<path d="M426.392 403.971H387.399L406.126 344.691H445.118L426.392 403.971Z" fill="#000045"/>
<path opacity="0.2" d="M400.653 362.003H439.646L445.118 344.691H406.126L400.653 362.003Z" fill="black"/>
<path d="M457.249 400.205H382.634V409.214H457.249V400.205Z" fill="#000045"/>
<path opacity="0.5" d="M457.249 400.205H382.634V409.214H457.249V400.205Z" fill="white"/>
<path opacity="0.6" d="M419.941 400.205H382.634V409.214H419.941V400.205Z" fill="white"/>
<path d="M746.363 331.812L732.776 176.508L520.107 195.255H305.794L89.8374 176.508L85.676 180.669L99.263 335.973L315.219 354.72H529.532L742.201 335.973L746.363 331.812Z" fill="#000045"/>
<path opacity="0.2" d="M746.363 331.812L732.776 176.508L520.107 195.255H305.794L89.8375 176.508L103.424 331.812L319.381 350.559H533.694L746.363 331.812Z" fill="white"/>
<path opacity="0.8" d="M727.124 183.35L526.83 200.873L539.325 343.689L739.618 326.165L727.124 183.35Z" fill="white"/>
<path opacity="0.5" d="M564.426 215.334C564.133 215.36 563.839 215.328 563.559 215.24C563.279 215.152 563.019 215.01 562.794 214.822C562.568 214.633 562.383 214.402 562.247 214.142C562.111 213.882 562.028 213.598 562.002 213.305C561.976 213.013 562.008 212.718 562.096 212.438C562.183 212.158 562.326 211.898 562.514 211.673C562.702 211.448 562.933 211.262 563.193 211.126C563.454 210.99 563.738 210.907 564.03 210.881L614.404 206.449C614.695 206.421 614.989 206.45 615.269 206.534C615.549 206.619 615.809 206.758 616.035 206.944C616.261 207.129 616.449 207.358 616.586 207.615C616.724 207.873 616.81 208.156 616.839 208.447C616.867 208.738 616.839 209.032 616.754 209.311C616.669 209.591 616.53 209.852 616.344 210.078C616.159 210.304 615.93 210.491 615.673 210.629C615.415 210.767 615.132 210.853 614.841 210.881L564.426 215.334Z" fill="#263238"/>
<g opacity="0.5">
<path opacity="0.5" d="M564.426 215.334C564.133 215.36 563.839 215.328 563.559 215.24C563.279 215.152 563.019 215.01 562.794 214.822C562.568 214.633 562.383 214.402 562.247 214.142C562.111 213.882 562.028 213.598 562.002 213.305C561.976 213.013 562.008 212.718 562.096 212.438C562.183 212.158 562.326 211.898 562.514 211.673C562.702 211.448 562.933 211.262 563.193 211.126C563.454 210.99 563.738 210.907 564.03 210.881L614.404 206.449C614.695 206.421 614.989 206.45 615.269 206.534C615.549 206.619 615.809 206.758 616.035 206.944C616.261 207.129 616.449 207.358 616.586 207.615C616.724 207.873 616.81 208.156 616.839 208.447C616.867 208.738 616.839 209.032 616.754 209.311C616.669 209.591 616.53 209.852 616.344 210.078C616.159 210.304 615.93 210.491 615.673 210.629C615.415 210.767 615.132 210.853 614.841 210.881L564.426 215.334Z" fill="white"/>
</g>
<path opacity="0.5" d="M646.385 208.114C646.092 208.14 645.798 208.108 645.518 208.02C645.238 207.932 644.978 207.79 644.752 207.602C644.527 207.413 644.342 207.182 644.206 206.922C644.07 206.662 643.987 206.378 643.961 206.085C643.935 205.793 643.967 205.498 644.054 205.218C644.142 204.938 644.285 204.678 644.473 204.453C644.661 204.228 644.892 204.042 645.152 203.906C645.413 203.77 645.697 203.687 645.989 203.661L696.363 199.229C696.935 199.208 697.493 199.408 697.921 199.787C698.35 200.167 698.616 200.696 698.664 201.267C698.712 201.837 698.539 202.404 698.18 202.849C697.821 203.295 697.305 203.586 696.738 203.661L646.385 208.114Z" fill="#263238"/>
<g opacity="0.5">
<path opacity="0.5" d="M646.385 208.114C646.092 208.14 645.798 208.108 645.518 208.02C645.238 207.932 644.978 207.79 644.752 207.602C644.527 207.413 644.342 207.182 644.206 206.922C644.07 206.662 643.987 206.378 643.961 206.085C643.935 205.793 643.967 205.498 644.054 205.218C644.142 204.938 644.285 204.678 644.473 204.453C644.661 204.228 644.892 204.042 645.152 203.906C645.413 203.77 645.697 203.687 645.989 203.661L696.363 199.229C696.935 199.208 697.493 199.408 697.921 199.787C698.35 200.167 698.616 200.696 698.664 201.267C698.712 201.837 698.539 202.404 698.18 202.849C697.821 203.295 697.305 203.586 696.738 203.661L646.385 208.114Z" fill="white"/>
</g>
<path d="M593.471 270.516C607.615 269.896 618.574 257.844 617.95 243.597C617.325 229.35 605.353 218.303 591.209 218.923C577.065 219.543 566.106 231.595 566.73 245.842C567.355 260.089 579.327 271.136 593.471 270.516Z" fill="#000045"/>
<g opacity="0.9">
<path d="M581.279 258.03L578.366 258.28C578.005 258.309 577.647 258.194 577.371 257.96C577.094 257.726 576.921 257.392 576.889 257.031L575.682 243.257C575.665 243.079 575.683 242.9 575.736 242.729C575.788 242.558 575.874 242.4 575.988 242.263C576.102 242.125 576.243 242.012 576.401 241.929C576.559 241.846 576.732 241.795 576.91 241.78L579.823 241.509C580.184 241.48 580.542 241.595 580.819 241.829C581.095 242.063 581.268 242.397 581.3 242.758L582.507 256.532C582.542 256.893 582.432 257.254 582.202 257.534C581.972 257.815 581.64 257.993 581.279 258.03Z" fill="white"/>
<path d="M585.087 240.49C586.96 238.638 591.662 233.394 591.641 227.756C591.644 227.15 591.842 226.561 592.204 226.076C592.566 225.591 593.075 225.235 593.655 225.06C594.235 224.886 594.855 224.902 595.426 225.106C595.996 225.31 596.485 225.692 596.822 226.195C597.863 228.005 598.112 231.439 596.24 237.847L603.439 237.223C604.382 237.14 605.329 237.337 606.161 237.788C606.994 238.24 607.675 238.926 608.12 239.761C608.659 240.76 608.836 241.914 608.62 243.028L606.539 253.889C606.314 255.053 605.672 256.095 604.733 256.819C603.795 257.543 602.624 257.899 601.441 257.822L587.688 256.844C587.155 256.789 586.657 256.553 586.278 256.174C585.899 255.795 585.662 255.296 585.607 254.763L584.525 242.383C584.472 242.046 584.494 241.7 584.591 241.373C584.689 241.045 584.858 240.743 585.087 240.49Z" fill="white"/>
</g>
<path opacity="0.9" d="M675.458 263.26C689.602 262.637 700.559 250.583 699.932 236.336C699.305 222.089 687.331 211.044 673.187 211.667C659.044 212.289 648.086 224.343 648.713 238.59C649.34 252.837 661.314 263.882 675.458 263.26Z" fill="white"/>
<path d="M661.074 226.258L658.161 226.507C657.981 226.523 657.805 226.574 657.644 226.658C657.484 226.742 657.341 226.857 657.225 226.996C657.109 227.136 657.022 227.296 656.968 227.47C656.915 227.643 656.896 227.825 656.913 228.005L658.12 241.759C658.133 241.939 658.182 242.116 658.263 242.277C658.345 242.439 658.457 242.583 658.595 242.701C658.732 242.819 658.891 242.908 659.063 242.964C659.235 243.021 659.417 243.042 659.597 243.028L662.51 242.758C662.691 242.742 662.866 242.691 663.027 242.607C663.188 242.523 663.33 242.408 663.446 242.269C663.562 242.129 663.65 241.969 663.703 241.795C663.757 241.622 663.776 241.44 663.759 241.26L662.552 227.506C662.539 227.326 662.49 227.151 662.408 226.99C662.326 226.83 662.213 226.687 662.076 226.571C661.938 226.455 661.779 226.367 661.607 226.313C661.435 226.259 661.254 226.241 661.074 226.258Z" fill="#000045"/>
<path d="M667.878 242.841C669.959 244.36 675.577 248.688 676.534 254.243C676.639 254.844 676.936 255.394 677.379 255.813C677.823 256.231 678.39 256.495 678.996 256.565C679.602 256.636 680.214 256.508 680.741 256.202C681.269 255.896 681.683 255.428 681.923 254.867C682.631 252.911 682.277 249.478 679.322 243.507L686.501 242.862C687.44 242.773 688.334 242.413 689.073 241.826C689.812 241.238 690.364 240.449 690.662 239.553C691.046 238.484 691.046 237.314 690.662 236.245L686.709 225.841C686.286 224.735 685.473 223.821 684.422 223.272C683.372 222.724 682.157 222.58 681.008 222.866L667.629 226.237C667.09 226.373 666.618 226.698 666.297 227.152C665.977 227.606 665.829 228.16 665.881 228.713L666.963 241.072C666.975 241.416 667.064 241.753 667.222 242.059C667.38 242.365 667.605 242.632 667.878 242.841Z" fill="#000045"/>
<path d="M585.751 309.522L570.559 310.861L572.109 328.438L587.301 327.098L585.751 309.522Z" fill="#000045"/>
<path opacity="0.9" d="M601.288 312.01L586.095 313.35L587.307 327.092L602.499 325.752L601.288 312.01Z" fill="white"/>
<path opacity="0.9" d="M630.099 291.472L614.907 292.812L617.692 324.399L632.885 323.059L630.099 291.472Z" fill="white"/>
<path opacity="0.9" d="M660.168 285.033L644.976 286.373L648.094 321.732L663.287 320.393L660.168 285.033Z" fill="white"/>
<path opacity="0.9" d="M691.239 290.241L676.046 291.58L678.47 319.064L693.662 317.724L691.239 290.241Z" fill="white"/>
<path d="M615.169 295.65L599.977 296.99L602.512 325.738L617.704 324.398L615.169 295.65Z" fill="#000045"/>
<path d="M644.636 282.605L629.443 283.944L632.894 323.076L648.087 321.736L644.636 282.605Z" fill="#000045"/>
<path d="M675.679 287.461L660.486 288.801L663.272 320.389L678.464 319.049L675.679 287.461Z" fill="#000045"/>
<path d="M704.521 267.294L689.329 268.634L693.657 317.715L708.85 316.375L704.521 267.294Z" fill="#000045"/>
<path opacity="0.8" d="M96.6621 183.291L109.167 326.111L312.535 343.776L300.051 200.956L96.6621 183.291Z" fill="white"/>
<path d="M241.916 249.416L132.783 240.011C130.491 239.73 128.357 238.694 126.718 237.067C125.08 235.439 124.029 233.313 123.732 231.022L122.359 215.292C122.224 214.266 122.328 213.222 122.663 212.242C122.998 211.262 123.554 210.373 124.29 209.644C125.025 208.915 125.918 208.366 126.901 208.039C127.883 207.712 128.928 207.617 129.953 207.76L239.107 217.123C241.407 217.381 243.551 218.409 245.191 220.042C246.831 221.674 247.87 223.814 248.138 226.112L249.532 241.842C249.666 242.872 249.561 243.919 249.225 244.902C248.889 245.885 248.331 246.777 247.594 247.51C246.858 248.242 245.963 248.795 244.978 249.126C243.993 249.456 242.946 249.556 241.916 249.416Z" fill="white"/>
<path d="M150.844 225.446C150.998 226.673 150.869 227.92 150.465 229.089C150.062 230.259 149.395 231.32 148.516 232.19C147.637 233.061 146.57 233.718 145.397 234.111C144.224 234.504 142.977 234.622 141.751 234.456C138.999 234.148 136.432 232.92 134.464 230.972C132.497 229.023 131.245 226.468 130.911 223.719C130.756 222.489 130.886 221.24 131.291 220.068C131.695 218.896 132.364 217.833 133.244 216.961C134.125 216.088 135.194 215.429 136.37 215.036C137.545 214.642 138.796 214.523 140.024 214.689C142.775 215.002 145.34 216.234 147.304 218.187C149.268 220.139 150.515 222.697 150.844 225.446Z" fill="#000045"/>
<path d="M163.557 221.056C162.961 220.986 162.405 220.719 161.979 220.296C161.553 219.874 161.281 219.321 161.206 218.725C161.167 218.448 161.195 218.166 161.288 217.902C161.381 217.638 161.535 217.4 161.739 217.208C161.943 217.017 162.19 216.877 162.459 216.801C162.729 216.724 163.012 216.714 163.286 216.77L230.181 222.575C230.778 222.641 231.336 222.907 231.763 223.33C232.19 223.753 232.461 224.308 232.532 224.905C232.571 225.182 232.543 225.465 232.45 225.729C232.357 225.993 232.202 226.23 231.999 226.422C231.795 226.614 231.548 226.754 231.279 226.83C231.009 226.906 230.726 226.917 230.452 226.861L163.557 221.056Z" fill="#263238"/>
<path d="M164.909 236.536C164.313 236.467 163.758 236.199 163.332 235.777C162.905 235.354 162.633 234.801 162.558 234.206C162.519 233.929 162.547 233.646 162.64 233.382C162.733 233.118 162.888 232.881 163.092 232.689C163.296 232.497 163.543 232.357 163.812 232.281C164.081 232.205 164.365 232.194 164.639 232.25L203.819 235.642C204.416 235.708 204.973 235.974 205.4 236.397C205.827 236.82 206.098 237.375 206.17 237.972C206.204 238.239 206.177 238.51 206.09 238.765C206.002 239.019 205.857 239.25 205.666 239.44C205.474 239.629 205.242 239.771 204.987 239.856C204.731 239.941 204.46 239.965 204.193 239.928L164.909 236.536Z" fill="#263238"/>
<path d="M164.243 228.796C163.646 228.73 163.089 228.464 162.662 228.041C162.235 227.617 161.964 227.062 161.892 226.466C161.853 226.189 161.881 225.906 161.974 225.642C162.067 225.378 162.222 225.14 162.426 224.949C162.63 224.757 162.877 224.617 163.146 224.541C163.415 224.464 163.699 224.454 163.973 224.51L220.714 229.441C221.31 229.511 221.865 229.778 222.291 230.201C222.718 230.623 222.99 231.176 223.065 231.771C223.1 232.038 223.072 232.31 222.985 232.564C222.897 232.819 222.752 233.05 222.561 233.239C222.37 233.428 222.137 233.571 221.882 233.656C221.626 233.74 221.355 233.765 221.088 233.727L164.243 228.796Z" fill="#263238"/>
<g opacity="0.5">
<path d="M163.557 221.056C162.961 220.986 162.405 220.719 161.979 220.296C161.553 219.874 161.281 219.321 161.206 218.725C161.167 218.448 161.195 218.166 161.288 217.902C161.381 217.638 161.535 217.4 161.739 217.208C161.943 217.017 162.19 216.877 162.459 216.801C162.729 216.724 163.012 216.714 163.286 216.77L230.181 222.575C230.778 222.641 231.336 222.907 231.763 223.33C232.19 223.753 232.461 224.308 232.532 224.905C232.571 225.182 232.543 225.465 232.45 225.729C232.357 225.993 232.202 226.23 231.999 226.422C231.795 226.614 231.548 226.754 231.279 226.83C231.009 226.906 230.726 226.917 230.452 226.861L163.557 221.056Z" fill="white"/>
<path d="M164.909 236.536C164.313 236.467 163.758 236.199 163.332 235.777C162.905 235.354 162.633 234.801 162.558 234.206C162.519 233.929 162.547 233.646 162.64 233.382C162.733 233.118 162.888 232.881 163.092 232.689C163.296 232.497 163.543 232.357 163.812 232.281C164.081 232.205 164.365 232.194 164.639 232.25L203.819 235.642C204.416 235.708 204.973 235.974 205.4 236.397C205.827 236.82 206.098 237.375 206.17 237.972C206.204 238.239 206.177 238.51 206.09 238.765C206.002 239.019 205.857 239.25 205.666 239.44C205.474 239.629 205.242 239.771 204.987 239.856C204.731 239.941 204.46 239.965 204.193 239.928L164.909 236.536Z" fill="white"/>
<path d="M164.243 228.796C163.646 228.73 163.089 228.464 162.662 228.041C162.235 227.617 161.964 227.062 161.892 226.466C161.853 226.189 161.881 225.906 161.974 225.642C162.067 225.378 162.222 225.14 162.426 224.949C162.63 224.757 162.877 224.617 163.146 224.541C163.415 224.464 163.699 224.454 163.973 224.51L220.714 229.441C221.31 229.511 221.865 229.778 222.291 230.201C222.718 230.623 222.99 231.176 223.065 231.771C223.1 232.038 223.072 232.31 222.985 232.564C222.897 232.819 222.752 233.05 222.561 233.239C222.37 233.428 222.137 233.571 221.882 233.656C221.626 233.74 221.355 233.765 221.088 233.727L164.243 228.796Z" fill="white"/>
</g>
<path d="M247.617 202.246L234.863 201.268C234.471 201.224 234.075 201.27 233.704 201.401C233.332 201.532 232.996 201.747 232.719 202.027C232.443 202.308 232.233 202.647 232.107 203.02C231.981 203.394 231.942 203.791 231.991 204.181L233.032 214.814C233.151 215.685 233.558 216.492 234.187 217.106C234.816 217.72 235.632 218.107 236.506 218.205L240.21 218.497L242.02 221.097C242.129 221.299 242.288 221.47 242.481 221.594C242.674 221.717 242.895 221.79 243.124 221.804C243.353 221.819 243.582 221.775 243.789 221.677C243.996 221.579 244.175 221.429 244.309 221.243L245.599 218.871L249.282 219.162C249.674 219.211 250.072 219.168 250.446 219.038C250.819 218.908 251.157 218.694 251.435 218.413C251.712 218.131 251.921 217.79 252.046 217.415C252.171 217.04 252.207 216.641 252.153 216.249L251.113 205.638C250.993 204.763 250.583 203.954 249.949 203.34C249.316 202.725 248.495 202.34 247.617 202.246Z" fill="#000045"/>
<g opacity="0.9">
<path d="M237.796 210.881C236.876 210.067 236.272 208.955 236.09 207.739C236.003 207.39 236.008 207.023 236.105 206.676C236.203 206.329 236.388 206.013 236.644 205.759C236.9 205.505 237.217 205.322 237.565 205.228C237.913 205.134 238.28 205.132 238.629 205.222C240.21 205.367 240.709 206.116 241.812 207.302C242.644 206.345 243.102 205.679 244.684 205.804C245.464 205.853 246.201 206.184 246.756 206.735C247.311 207.286 247.647 208.02 247.701 208.8C247.741 209.345 247.655 209.891 247.449 210.396C247.243 210.901 246.924 211.352 246.515 211.713L242.54 215.625L237.796 210.881Z" fill="white"/>
</g>
<path d="M271.754 289.823L162.6 280.335C160.299 280.075 158.154 279.046 156.511 277.415C154.868 275.783 153.825 273.645 153.549 271.347L152.175 255.637C152.045 254.609 152.152 253.564 152.49 252.584C152.827 251.604 153.386 250.714 154.122 249.984C154.858 249.254 155.752 248.703 156.735 248.374C157.718 248.044 158.763 247.945 159.791 248.084L268.924 257.572C271.223 257.828 273.367 258.853 275.01 260.48C276.653 262.108 277.698 264.244 277.975 266.54L279.348 282.27C279.482 283.298 279.378 284.342 279.043 285.322C278.708 286.303 278.152 287.193 277.417 287.923C276.683 288.654 275.79 289.205 274.807 289.535C273.825 289.864 272.78 289.963 271.754 289.823Z" fill="white"/>
<path d="M180.639 265.895C180.798 267.124 180.671 268.373 180.269 269.545C179.867 270.717 179.2 271.781 178.321 272.654C177.442 273.527 176.374 274.186 175.199 274.58C174.024 274.974 172.775 275.092 171.547 274.925C168.796 274.612 166.231 273.38 164.267 271.428C162.303 269.475 161.056 266.917 160.727 264.168C160.572 262.941 160.702 261.694 161.105 260.525C161.509 259.356 162.176 258.295 163.055 257.424C163.933 256.553 165 255.896 166.173 255.503C167.346 255.111 168.594 254.993 169.82 255.159C172.571 255.464 175.137 256.691 177.102 258.64C179.066 260.59 180.313 263.147 180.639 265.895Z" fill="#000045"/>
<path d="M193.394 261.463C192.798 261.393 192.243 261.126 191.817 260.704C191.39 260.281 191.118 259.728 191.043 259.133C191.004 258.856 191.032 258.573 191.125 258.309C191.218 258.045 191.373 257.807 191.577 257.616C191.781 257.424 192.027 257.284 192.297 257.208C192.566 257.131 192.85 257.121 193.124 257.177L259.914 262.899C260.51 262.969 261.066 263.236 261.492 263.658C261.918 264.081 262.191 264.634 262.266 265.229C262.305 265.506 262.276 265.789 262.184 266.053C262.091 266.317 261.936 266.555 261.732 266.746C261.528 266.938 261.281 267.078 261.012 267.154C260.743 267.231 260.459 267.241 260.185 267.185L193.394 261.463Z" fill="#263238"/>
<path d="M194.747 276.944C194.149 276.869 193.593 276.598 193.167 276.172C192.741 275.746 192.47 275.19 192.395 274.592C192.365 274.326 192.395 274.057 192.484 273.804C192.573 273.552 192.718 273.323 192.909 273.134C193.099 272.946 193.33 272.803 193.583 272.717C193.837 272.631 194.106 272.603 194.372 272.637L233.552 276.049C234.149 276.115 234.707 276.381 235.133 276.804C235.56 277.228 235.832 277.783 235.903 278.379C235.938 278.646 235.91 278.917 235.823 279.172C235.735 279.427 235.59 279.658 235.399 279.847C235.208 280.036 234.975 280.179 234.72 280.263C234.464 280.348 234.193 280.373 233.926 280.335L194.747 276.944Z" fill="#263238"/>
<path d="M194.081 269.141C193.483 269.075 192.926 268.809 192.499 268.385C192.072 267.962 191.801 267.407 191.73 266.811C191.695 266.544 191.722 266.272 191.81 266.018C191.897 265.763 192.042 265.532 192.234 265.343C192.425 265.154 192.657 265.011 192.913 264.926C193.168 264.842 193.44 264.817 193.706 264.855L250.447 269.765C251.041 269.836 251.593 270.104 252.016 270.527C252.439 270.949 252.707 271.502 252.778 272.096C252.834 272.37 252.823 272.653 252.747 272.923C252.67 273.192 252.53 273.439 252.339 273.643C252.147 273.846 251.909 274.001 251.645 274.094C251.381 274.187 251.099 274.215 250.822 274.176L194.081 269.141Z" fill="#263238"/>
<g opacity="0.5">
<path d="M193.394 261.463C192.798 261.393 192.243 261.126 191.817 260.704C191.39 260.281 191.118 259.728 191.043 259.133C191.004 258.856 191.032 258.573 191.125 258.309C191.218 258.045 191.373 257.807 191.577 257.616C191.781 257.424 192.027 257.284 192.297 257.208C192.566 257.131 192.85 257.121 193.124 257.177L259.914 262.899C260.51 262.969 261.066 263.236 261.492 263.658C261.918 264.081 262.191 264.634 262.266 265.229C262.305 265.506 262.276 265.789 262.184 266.053C262.091 266.317 261.936 266.555 261.732 266.746C261.528 266.938 261.281 267.078 261.012 267.154C260.743 267.231 260.459 267.241 260.185 267.185L193.394 261.463Z" fill="white"/>
<path d="M194.747 276.944C194.149 276.869 193.593 276.598 193.167 276.172C192.741 275.746 192.47 275.19 192.395 274.592C192.365 274.326 192.395 274.057 192.484 273.804C192.573 273.552 192.718 273.323 192.909 273.134C193.099 272.946 193.33 272.803 193.583 272.717C193.837 272.631 194.106 272.603 194.372 272.637L233.552 276.049C234.149 276.115 234.707 276.381 235.133 276.804C235.56 277.228 235.831 277.783 235.903 278.379C235.938 278.646 235.91 278.918 235.823 279.172C235.735 279.427 235.59 279.658 235.399 279.847C235.208 280.036 234.975 280.179 234.72 280.263C234.464 280.348 234.193 280.373 233.926 280.335L194.747 276.944Z" fill="white"/>
<path d="M194.081 269.141C193.483 269.075 192.926 268.809 192.499 268.385C192.072 267.962 191.801 267.407 191.73 266.811C191.695 266.544 191.722 266.272 191.81 266.018C191.897 265.763 192.042 265.532 192.234 265.343C192.425 265.154 192.657 265.011 192.913 264.926C193.168 264.842 193.44 264.817 193.706 264.855L250.447 269.765C251.041 269.836 251.593 270.104 252.016 270.527C252.439 270.949 252.707 271.502 252.778 272.096C252.834 272.37 252.823 272.653 252.747 272.923C252.67 273.192 252.53 273.439 252.339 273.643C252.147 273.846 251.909 274.001 251.645 274.094C251.381 274.187 251.099 274.215 250.822 274.176L194.081 269.141Z" fill="white"/>
</g>
<path d="M277.455 242.654L264.7 241.676C264.308 241.627 263.91 241.67 263.536 241.8C263.163 241.93 262.824 242.144 262.547 242.425C262.27 242.707 262.06 243.048 261.936 243.423C261.811 243.798 261.775 244.197 261.829 244.589L262.869 255.2C262.981 256.077 263.384 256.89 264.015 257.509C264.645 258.128 265.465 258.517 266.344 258.613L270.047 258.904L271.858 261.484C271.962 261.687 272.117 261.86 272.307 261.986C272.497 262.112 272.717 262.187 272.945 262.204C273.173 262.221 273.401 262.179 273.608 262.082C273.814 261.985 273.993 261.836 274.126 261.65L275.436 259.258L279.098 259.549C279.486 259.59 279.877 259.542 280.243 259.41C280.609 259.279 280.941 259.066 281.213 258.787C281.485 258.509 281.691 258.173 281.815 257.804C281.939 257.435 281.977 257.043 281.928 256.657L280.867 246.066C280.765 245.196 280.373 244.386 279.754 243.767C279.135 243.148 278.325 242.755 277.455 242.654Z" fill="#000045"/>
<g opacity="0.9">
<path d="M267.634 251.268C266.702 250.454 266.095 249.331 265.928 248.105C265.845 247.757 265.853 247.393 265.953 247.049C266.052 246.705 266.238 246.392 266.493 246.141C266.748 245.89 267.064 245.709 267.41 245.616C267.755 245.522 268.119 245.52 268.466 245.608C270.027 245.733 270.547 246.503 271.65 247.689C272.461 246.732 272.94 246.045 274.5 246.191C275.286 246.23 276.03 246.557 276.59 247.11C277.15 247.662 277.488 248.402 277.538 249.187C277.57 249.727 277.481 250.268 277.275 250.769C277.07 251.269 276.754 251.717 276.352 252.079L272.378 256.012L267.634 251.268Z" fill="white"/>
</g>
<path d="M257.501 328.961L148.347 319.473C146.045 319.217 143.898 318.189 142.254 316.557C140.611 314.925 139.568 312.785 139.296 310.485L137.923 294.775C137.788 293.748 137.893 292.704 138.228 291.723C138.562 290.743 139.119 289.853 139.853 289.122C140.588 288.391 141.481 287.84 142.463 287.511C143.446 287.181 144.491 287.082 145.517 287.222L254.671 296.71C256.973 296.967 259.12 297.995 260.764 299.627C262.407 301.259 263.45 303.399 263.722 305.699L265.095 321.408C265.229 322.436 265.125 323.48 264.79 324.46C264.455 325.441 263.899 326.331 263.164 327.061C262.43 327.792 261.537 328.343 260.554 328.673C259.572 329.002 258.527 329.101 257.501 328.961Z" fill="white"/>
<path d="M166.387 305.033C166.545 306.262 166.418 307.511 166.016 308.683C165.614 309.855 164.948 310.919 164.068 311.792C163.189 312.665 162.121 313.324 160.946 313.718C159.771 314.112 158.522 314.23 157.294 314.063C154.543 313.75 151.978 312.518 150.014 310.566C148.05 308.613 146.803 306.056 146.474 303.306C146.32 302.079 146.449 300.832 146.853 299.663C147.256 298.494 147.923 297.433 148.802 296.562C149.681 295.691 150.748 295.034 151.921 294.642C153.094 294.249 154.341 294.131 155.567 294.297C158.315 294.609 160.878 295.838 162.841 297.786C164.804 299.734 166.053 302.288 166.387 305.033Z" fill="#000045"/>
<path d="M179.141 300.601C178.544 300.535 177.987 300.269 177.56 299.846C177.133 299.423 176.862 298.868 176.79 298.271C176.755 298.004 176.783 297.733 176.87 297.478C176.958 297.224 177.103 296.993 177.294 296.803C177.485 296.614 177.718 296.471 177.973 296.387C178.229 296.302 178.5 296.277 178.767 296.315L245.662 302.12C246.267 302.193 246.83 302.469 247.257 302.904C247.684 303.339 247.951 303.906 248.013 304.513C248.047 304.78 248.02 305.051 247.933 305.306C247.845 305.56 247.7 305.791 247.509 305.98C247.317 306.17 247.085 306.312 246.83 306.397C246.574 306.482 246.303 306.506 246.036 306.469L179.141 300.601Z" fill="#263238"/>
<path d="M180.494 316.082C179.898 316.012 179.342 315.745 178.916 315.322C178.49 314.9 178.218 314.347 178.143 313.751C178.109 313.484 178.137 313.212 178.224 312.957C178.311 312.701 178.456 312.469 178.647 312.279C178.837 312.088 179.069 311.943 179.325 311.856C179.58 311.769 179.852 311.741 180.119 311.775L234.072 316.456C234.668 316.526 235.223 316.793 235.65 317.216C236.076 317.638 236.348 318.191 236.423 318.787C236.462 319.064 236.434 319.346 236.341 319.61C236.248 319.874 236.093 320.112 235.89 320.304C235.686 320.495 235.439 320.635 235.169 320.712C234.9 320.788 234.617 320.799 234.342 320.742L180.494 316.082Z" fill="#263238"/>
<path d="M179.807 308.341C179.211 308.272 178.656 308.004 178.23 307.582C177.803 307.159 177.531 306.606 177.456 306.011C177.417 305.734 177.445 305.452 177.538 305.188C177.631 304.924 177.786 304.686 177.99 304.494C178.194 304.302 178.44 304.163 178.71 304.086C178.979 304.01 179.262 303.999 179.537 304.055L227.892 308.217C228.487 308.29 229.04 308.558 229.466 308.98C229.892 309.402 230.165 309.953 230.243 310.547C230.3 310.832 230.286 311.128 230.202 311.406C230.117 311.685 229.966 311.938 229.76 312.144C229.554 312.35 229.3 312.502 229.022 312.586C228.743 312.67 228.448 312.685 228.163 312.628L179.807 308.341Z" fill="#263238"/>
<g opacity="0.5">
<path d="M179.141 300.601C178.544 300.535 177.987 300.269 177.56 299.846C177.133 299.423 176.862 298.868 176.79 298.271C176.755 298.004 176.783 297.733 176.87 297.478C176.958 297.224 177.103 296.993 177.294 296.803C177.485 296.614 177.718 296.471 177.973 296.387C178.229 296.302 178.5 296.277 178.767 296.315L245.662 302.12C246.267 302.193 246.83 302.469 247.257 302.904C247.684 303.339 247.951 303.906 248.013 304.513C248.047 304.78 248.02 305.051 247.933 305.306C247.845 305.56 247.7 305.791 247.509 305.98C247.317 306.17 247.085 306.312 246.83 306.397C246.574 306.482 246.303 306.506 246.036 306.469L179.141 300.601Z" fill="white"/>
<path d="M180.494 316.082C179.898 316.012 179.342 315.745 178.916 315.322C178.49 314.9 178.218 314.347 178.143 313.751C178.109 313.484 178.137 313.212 178.224 312.957C178.311 312.701 178.456 312.469 178.647 312.279C178.837 312.088 179.069 311.943 179.325 311.856C179.58 311.769 179.852 311.741 180.119 311.775L234.072 316.456C234.668 316.526 235.223 316.793 235.65 317.216C236.076 317.638 236.348 318.191 236.423 318.787C236.462 319.064 236.434 319.346 236.341 319.61C236.248 319.874 236.093 320.112 235.89 320.304C235.686 320.495 235.439 320.635 235.169 320.712C234.9 320.788 234.617 320.799 234.342 320.742L180.494 316.082Z" fill="white"/>
<path d="M179.807 308.341C179.211 308.272 178.656 308.004 178.23 307.582C177.803 307.159 177.531 306.606 177.456 306.011C177.417 305.734 177.445 305.452 177.538 305.188C177.631 304.924 177.786 304.686 177.99 304.494C178.194 304.302 178.44 304.163 178.71 304.086C178.979 304.01 179.262 303.999 179.537 304.055L227.892 308.217C228.487 308.29 229.04 308.558 229.466 308.98C229.892 309.402 230.165 309.953 230.243 310.547C230.3 310.832 230.286 311.128 230.202 311.406C230.117 311.685 229.966 311.938 229.76 312.144C229.554 312.35 229.3 312.502 229.022 312.586C228.743 312.67 228.448 312.685 228.163 312.628L179.807 308.341Z" fill="white"/>
</g>
<path d="M263.556 285.974L250.801 285.017C250.409 284.968 250.01 285.011 249.637 285.141C249.264 285.271 248.925 285.485 248.648 285.766C248.37 286.048 248.161 286.389 248.037 286.764C247.912 287.139 247.876 287.538 247.929 287.93L248.97 298.541C249.079 299.417 249.482 300.229 250.113 300.846C250.745 301.462 251.567 301.845 252.445 301.933L256.148 302.224L257.958 304.825C258.069 305.024 258.228 305.192 258.42 305.314C258.612 305.436 258.831 305.509 259.058 305.525C259.285 305.542 259.512 305.502 259.72 305.409C259.928 305.315 260.109 305.172 260.247 304.992L261.537 302.599L265.22 302.89C265.612 302.938 266.011 302.896 266.384 302.766C266.757 302.636 267.096 302.422 267.373 302.141C267.651 301.859 267.86 301.518 267.984 301.142C268.109 300.767 268.146 300.369 268.092 299.977L267.051 289.386C266.932 288.509 266.523 287.698 265.89 287.08C265.256 286.461 264.435 286.072 263.556 285.974Z" fill="#000045"/>
<path opacity="0.9" d="M253.818 297.876C253.56 297.849 253.319 297.736 253.133 297.555C252.948 297.373 252.83 297.134 252.798 296.877L252.486 293.298C252.473 293.183 252.486 293.066 252.524 292.956C252.562 292.847 252.625 292.747 252.707 292.665C252.789 292.583 252.888 292.521 252.998 292.483C253.107 292.444 253.224 292.432 253.339 292.445C253.601 292.475 253.846 292.591 254.034 292.776C254.223 292.961 254.344 293.203 254.38 293.464L254.692 297.022C254.706 297.14 254.693 297.259 254.653 297.37C254.614 297.481 254.55 297.582 254.465 297.664C254.381 297.747 254.278 297.809 254.166 297.845C254.054 297.882 253.935 297.892 253.818 297.876Z" fill="white"/>
<path opacity="0.9" d="M255.586 292.445C256.202 292.017 256.718 291.46 257.099 290.814C257.48 290.167 257.716 289.446 257.792 288.7C257.792 287.805 259.061 287.638 259.54 288.492C259.949 289.721 259.875 291.06 259.332 292.237L261.745 292.445C262.075 292.491 262.388 292.615 262.66 292.807C262.931 292.998 263.153 293.253 263.306 293.548C263.492 293.876 263.551 294.261 263.472 294.63L262.765 298.042C262.725 298.223 262.647 298.393 262.537 298.542C262.428 298.691 262.288 298.815 262.127 298.907C261.967 298.999 261.789 299.057 261.605 299.076C261.421 299.096 261.235 299.076 261.059 299.02L256.44 297.917C256.254 297.868 256.087 297.765 255.961 297.62C255.835 297.476 255.755 297.296 255.732 297.106L255.378 292.944C255.381 292.757 255.456 292.578 255.586 292.445Z" fill="white"/>
<path opacity="0.8" d="M312.577 201.497L325.082 344.317H526.91L514.405 201.497H312.577Z" fill="white"/>
<g opacity="0.2">
<path d="M318.777 343.651C318.353 343.639 317.947 343.475 317.634 343.188C317.321 342.902 317.121 342.512 317.071 342.091L313.139 297.126C313.118 296.927 313.14 296.725 313.203 296.535C313.266 296.345 313.369 296.17 313.505 296.023C313.641 295.875 313.806 295.758 313.991 295.679C314.175 295.601 314.374 295.562 314.574 295.566C314.999 295.57 315.407 295.732 315.719 296.02C316.031 296.309 316.224 296.703 316.26 297.126L320.192 342.091C320.213 342.288 320.191 342.488 320.13 342.677C320.068 342.866 319.967 343.039 319.833 343.187C319.7 343.334 319.537 343.451 319.355 343.531C319.173 343.611 318.976 343.652 318.777 343.651Z" fill="black"/>
</g>
<g opacity="0.2">
<path d="M314.117 290.364C313.691 290.356 313.283 290.194 312.969 289.906C312.655 289.619 312.456 289.227 312.411 288.804L306.897 224.988C306.876 224.791 306.898 224.591 306.96 224.402C307.021 224.213 307.122 224.04 307.256 223.892C307.389 223.745 307.552 223.628 307.734 223.548C307.916 223.468 308.113 223.427 308.312 223.428C308.737 223.436 309.145 223.598 309.46 223.886C309.774 224.173 309.972 224.565 310.018 224.988L315.594 288.804C315.615 289.007 315.592 289.212 315.527 289.405C315.461 289.599 315.355 289.775 315.214 289.924C315.074 290.072 314.903 290.188 314.714 290.264C314.524 290.34 314.321 290.374 314.117 290.364Z" fill="black"/>
</g>
<g opacity="0.2">
<path d="M307.833 218.58C307.409 218.568 307.003 218.403 306.69 218.117C306.376 217.83 306.177 217.441 306.127 217.019L304.982 203.724C304.959 203.525 304.978 203.324 305.038 203.134C305.099 202.943 305.2 202.768 305.334 202.62C305.468 202.472 305.632 202.355 305.816 202.276C305.999 202.197 306.198 202.159 306.397 202.163C306.823 202.171 307.231 202.334 307.545 202.621C307.859 202.908 308.058 203.3 308.103 203.724L309.248 217.019C309.268 217.217 309.247 217.417 309.185 217.606C309.123 217.794 309.022 217.968 308.889 218.115C308.755 218.263 308.592 218.38 308.41 218.46C308.228 218.54 308.032 218.581 307.833 218.58Z" fill="black"/>
</g>
<g opacity="0.2">
<path d="M533.09 343.651C532.665 343.643 532.256 343.481 531.942 343.193C531.628 342.906 531.43 342.514 531.384 342.091L525.662 276.652C525.641 276.453 525.663 276.251 525.726 276.061C525.79 275.871 525.892 275.696 526.028 275.548C526.164 275.401 526.329 275.284 526.514 275.205C526.698 275.126 526.897 275.088 527.098 275.092C527.52 275.104 527.923 275.269 528.233 275.556C528.543 275.843 528.738 276.232 528.783 276.652L534.505 342.091C534.526 342.288 534.504 342.488 534.442 342.677C534.38 342.866 534.279 343.039 534.146 343.187C534.012 343.334 533.849 343.451 533.668 343.531C533.486 343.611 533.289 343.652 533.09 343.651Z" fill="black"/>
</g>
<g opacity="0.2">
<path d="M526.702 270.597C526.277 270.59 525.869 270.427 525.554 270.14C525.24 269.852 525.042 269.46 524.996 269.037L520.544 218.06C520.52 217.861 520.539 217.66 520.599 217.47C520.66 217.28 520.761 217.104 520.895 216.956C521.029 216.808 521.193 216.691 521.377 216.612C521.56 216.533 521.759 216.495 521.958 216.499C522.385 216.502 522.796 216.664 523.111 216.952C523.426 217.24 523.623 217.635 523.665 218.06L528.117 269.037C528.138 269.235 528.116 269.434 528.054 269.623C527.993 269.812 527.892 269.986 527.758 270.133C527.625 270.28 527.462 270.398 527.28 270.478C527.098 270.558 526.901 270.598 526.702 270.597Z" fill="black"/>
</g>
<g opacity="0.2">
<path d="M521.417 210.361C520.993 210.357 520.585 210.195 520.273 209.907C519.961 209.618 519.768 209.224 519.732 208.8L519.274 203.724C519.254 203.524 519.276 203.323 519.339 203.132C519.402 202.942 519.505 202.767 519.64 202.62C519.776 202.472 519.942 202.355 520.126 202.276C520.31 202.198 520.51 202.159 520.71 202.163C521.135 202.167 521.543 202.329 521.855 202.617C522.166 202.906 522.359 203.3 522.395 203.724L522.853 208.8C522.874 209 522.852 209.201 522.789 209.392C522.726 209.582 522.623 209.757 522.487 209.904C522.351 210.052 522.186 210.169 522.001 210.248C521.817 210.326 521.618 210.365 521.417 210.361Z" fill="black"/>
</g>
<path d="M490.873 264.376C490.852 264.108 490.888 263.839 490.978 263.586C491.067 263.333 491.208 263.101 491.392 262.905C491.576 262.709 491.799 262.554 492.046 262.449C492.294 262.344 492.56 262.292 492.828 262.295C493.403 262.301 493.956 262.515 494.385 262.898C494.813 263.281 495.088 263.806 495.159 264.376L497.635 292.591C497.655 292.858 497.619 293.127 497.53 293.381C497.441 293.634 497.299 293.866 497.115 294.062C496.931 294.257 496.709 294.413 496.461 294.518C496.214 294.623 495.948 294.675 495.679 294.671C495.105 294.665 494.552 294.451 494.123 294.069C493.694 293.686 493.419 293.161 493.349 292.591L490.873 264.376Z" fill="#000045"/>
<path d="M327.704 213.503C327.129 213.497 326.576 213.283 326.148 212.9C325.719 212.518 325.444 211.992 325.373 211.422C325.353 211.154 325.389 210.885 325.478 210.632C325.568 210.379 325.709 210.147 325.893 209.951C326.077 209.755 326.3 209.6 326.547 209.495C326.794 209.39 327.061 209.338 327.329 209.341H376.351C376.925 209.347 377.478 209.561 377.907 209.944C378.335 210.327 378.61 210.852 378.681 211.422C378.701 211.69 378.666 211.959 378.576 212.212C378.487 212.466 378.345 212.698 378.161 212.893C377.977 213.089 377.755 213.244 377.507 213.349C377.26 213.454 376.994 213.507 376.725 213.503H327.704Z" fill="#263238"/>
<path d="M329.119 228.983C328.544 228.978 327.991 228.764 327.562 228.381C327.134 227.998 326.859 227.473 326.788 226.903C326.768 226.635 326.804 226.366 326.893 226.112C326.983 225.859 327.124 225.627 327.308 225.431C327.492 225.236 327.715 225.08 327.962 224.976C328.209 224.871 328.475 224.818 328.744 224.822H369.443C370.017 224.828 370.57 225.042 370.999 225.424C371.427 225.807 371.703 226.332 371.773 226.903C371.793 227.17 371.758 227.44 371.668 227.693C371.579 227.946 371.437 228.178 371.253 228.374C371.069 228.57 370.847 228.725 370.599 228.83C370.352 228.935 370.086 228.987 369.817 228.983H329.119Z" fill="#263238"/>
<path d="M328.432 221.285C327.857 221.279 327.304 221.065 326.876 220.682C326.447 220.299 326.172 219.774 326.102 219.204C326.081 218.936 326.117 218.667 326.207 218.414C326.296 218.16 326.437 217.929 326.621 217.733C326.805 217.537 327.028 217.382 327.275 217.277C327.522 217.172 327.789 217.12 328.057 217.123H360.454C361.029 217.129 361.582 217.343 362.01 217.726C362.439 218.109 362.714 218.634 362.784 219.204C362.805 219.472 362.769 219.741 362.679 219.994C362.59 220.248 362.449 220.479 362.265 220.675C362.081 220.871 361.858 221.026 361.611 221.131C361.364 221.236 361.097 221.288 360.829 221.285H328.432Z" fill="#263238"/>
<g opacity="0.5">
<path d="M327.704 213.503C327.129 213.497 326.576 213.283 326.148 212.9C325.719 212.518 325.444 211.992 325.373 211.422C325.353 211.154 325.389 210.885 325.478 210.632C325.568 210.379 325.709 210.147 325.893 209.951C326.077 209.755 326.3 209.6 326.547 209.495C326.794 209.39 327.061 209.338 327.329 209.341H376.351C376.925 209.347 377.478 209.561 377.907 209.944C378.335 210.327 378.61 210.852 378.681 211.422C378.701 211.69 378.666 211.959 378.576 212.212C378.487 212.466 378.345 212.698 378.161 212.893C377.977 213.089 377.755 213.244 377.507 213.349C377.26 213.454 376.994 213.507 376.725 213.503H327.704Z" fill="white"/>
<path d="M329.119 228.983C328.544 228.978 327.991 228.764 327.562 228.381C327.134 227.998 326.859 227.473 326.788 226.903C326.768 226.635 326.804 226.366 326.893 226.112C326.983 225.859 327.124 225.627 327.308 225.431C327.492 225.236 327.715 225.08 327.962 224.976C328.209 224.871 328.475 224.818 328.744 224.822H369.443C370.017 224.828 370.57 225.042 370.999 225.424C371.427 225.807 371.703 226.332 371.773 226.903C371.793 227.17 371.758 227.44 371.668 227.693C371.579 227.946 371.437 228.178 371.253 228.374C371.069 228.57 370.847 228.725 370.599 228.83C370.352 228.935 370.086 228.987 369.817 228.983H329.119Z" fill="white"/>
<path d="M328.432 221.285C327.857 221.279 327.304 221.065 326.876 220.682C326.447 220.3 326.172 219.774 326.102 219.204C326.081 218.936 326.117 218.667 326.207 218.414C326.296 218.16 326.437 217.929 326.621 217.733C326.805 217.537 327.028 217.382 327.275 217.277C327.522 217.172 327.789 217.12 328.057 217.123H360.454C361.029 217.129 361.582 217.343 362.01 217.726C362.439 218.109 362.714 218.634 362.784 219.204C362.805 219.472 362.769 219.741 362.679 219.994C362.59 220.248 362.449 220.479 362.265 220.675C362.081 220.871 361.858 221.026 361.611 221.131C361.364 221.236 361.097 221.288 360.829 221.285H328.432Z" fill="white"/>
</g>
<path d="M502.587 246.794C502.741 248.207 502.592 249.636 502.151 250.987C501.709 252.338 500.985 253.58 500.026 254.629C499.068 255.678 497.896 256.511 496.591 257.072C495.285 257.634 493.875 257.91 492.454 257.884C489.434 257.834 486.537 256.677 484.313 254.633C482.088 252.589 480.691 249.8 480.386 246.794C480.229 245.38 480.375 243.948 480.815 242.595C481.255 241.241 481.979 239.997 482.938 238.946C483.897 237.894 485.069 237.059 486.377 236.497C487.684 235.934 489.096 235.657 490.519 235.683C493.533 235.766 496.416 236.936 498.634 238.978C500.852 241.021 502.256 243.797 502.587 246.794Z" fill="#000045"/>
<path d="M486.025 252.079C485.689 252.08 485.365 251.954 485.118 251.727C484.871 251.499 484.719 251.186 484.693 250.852L484.277 246.191C484.259 246.034 484.275 245.875 484.324 245.725C484.372 245.575 484.453 245.437 484.559 245.321C484.666 245.205 484.796 245.113 484.941 245.051C485.086 244.989 485.243 244.959 485.4 244.963C485.734 244.971 486.052 245.1 486.297 245.326C486.542 245.552 486.697 245.859 486.732 246.191L487.127 250.852C487.145 251.007 487.13 251.163 487.082 251.312C487.035 251.461 486.956 251.597 486.852 251.713C486.748 251.829 486.62 251.922 486.478 251.985C486.335 252.048 486.181 252.08 486.025 252.079Z" fill="white"/>
<path d="M488.313 244.713C489.911 243.422 490.936 241.553 491.164 239.512C491.187 239.253 491.294 239.008 491.467 238.814C491.641 238.621 491.872 238.488 492.127 238.437C492.382 238.385 492.647 238.418 492.882 238.529C493.117 238.64 493.31 238.824 493.432 239.054C493.968 240.68 493.871 242.448 493.161 244.006H496.241C496.672 244.003 497.095 244.12 497.462 244.344C497.83 244.568 498.128 244.891 498.322 245.275C498.55 245.709 498.631 246.206 498.55 246.69L497.635 251.268C497.534 251.759 497.245 252.192 496.828 252.472C496.412 252.752 495.902 252.858 495.409 252.766L489.437 251.829C489.193 251.789 488.968 251.67 488.799 251.489C488.63 251.309 488.525 251.077 488.501 250.831L488.022 245.483C488.012 245.342 488.032 245.199 488.083 245.066C488.133 244.933 488.212 244.813 488.313 244.713Z" fill="white"/>
<path d="M508.122 310.173C507.821 307.163 506.426 304.369 504.202 302.321C501.977 300.273 499.077 299.113 496.054 299.062C494.631 299.035 493.219 299.312 491.911 299.875C490.604 300.438 489.432 301.273 488.473 302.324C487.514 303.376 486.79 304.62 486.35 305.973C485.91 307.326 485.764 308.758 485.921 310.173C486.251 313.17 487.655 315.946 489.874 317.988C492.092 320.031 494.975 321.201 497.989 321.283C499.412 321.31 500.824 321.033 502.131 320.47C503.438 319.907 504.611 319.073 505.569 318.021C506.528 316.969 507.252 315.725 507.692 314.372C508.132 313.019 508.279 311.587 508.122 310.173Z" fill="#000045"/>
<path d="M490.644 304.867C490.486 304.863 490.329 304.893 490.184 304.954C490.039 305.016 489.909 305.108 489.802 305.225C489.696 305.341 489.616 305.479 489.567 305.629C489.518 305.779 489.502 305.938 489.52 306.094L489.999 310.755C490.03 311.088 490.183 311.398 490.429 311.625C490.675 311.851 490.996 311.979 491.33 311.983C491.486 311.984 491.641 311.952 491.783 311.889C491.926 311.826 492.054 311.733 492.158 311.617C492.262 311.501 492.341 311.364 492.388 311.216C492.435 311.067 492.451 310.91 492.433 310.755L492.038 306.074C491.992 305.737 491.826 305.429 491.569 305.207C491.312 304.985 490.983 304.864 490.644 304.867Z" fill="white"/>
<path d="M494.16 312.232C495.965 313.503 497.291 315.342 497.926 317.455C498.114 318.641 499.841 318.995 500.257 317.913C500.673 316.831 500.423 315.624 499.133 312.94H502.254C502.652 312.95 503.043 312.836 503.371 312.611C503.7 312.387 503.95 312.065 504.085 311.691C504.241 311.233 504.241 310.735 504.085 310.277L502.358 305.699C502.178 305.205 501.834 304.786 501.384 304.514C500.934 304.242 500.404 304.131 499.882 304.201L494.077 305.137C493.845 305.173 493.636 305.297 493.493 305.483C493.35 305.669 493.283 305.903 493.307 306.136L493.786 311.463C493.789 311.61 493.824 311.756 493.888 311.889C493.953 312.022 494.046 312.139 494.16 312.232Z" fill="white"/>
<path d="M463.179 320.074C484.157 298.159 481.77 261.828 457.847 238.927C433.923 216.025 397.523 215.225 376.544 237.139C355.565 259.054 357.953 295.385 381.876 318.287C405.8 341.188 442.2 341.989 463.179 320.074Z" fill="#000045"/>
<path opacity="0.6" d="M456.895 237.93C445.451 227.321 430.449 221.382 414.844 221.285C383.155 221.285 359.705 246.981 362.472 278.671H419.858L456.895 237.93Z" fill="white"/>
<path opacity="0.2" d="M375.726 237.93L419.858 278.504L414.844 221.285C407.522 221.169 400.257 222.591 393.519 225.458C386.781 228.325 380.72 232.574 375.726 237.93Z" fill="black"/>
<path d="M375.726 237.93L419.858 278.504L414.844 221.285C407.522 221.169 400.257 222.591 393.519 225.458C386.781 228.325 380.72 232.574 375.726 237.93Z" fill="#000045"/>
<path opacity="0.3" d="M375.726 237.93L419.858 278.504L414.844 221.285C407.522 221.169 400.257 222.591 393.519 225.458C386.781 228.325 380.72 232.574 375.726 237.93Z" fill="black"/>
<path opacity="0.3" d="M424.893 335.973C456.583 335.973 480.032 310.277 477.265 278.567H419.858L382.822 319.078C394.232 329.784 409.248 335.813 424.893 335.973Z" fill="white"/>
<path d="M462.45 326.152C462.642 327.929 462.454 329.726 461.899 331.424C461.344 333.122 460.434 334.683 459.23 336.003C458.026 337.323 456.555 338.373 454.915 339.081C453.275 339.79 451.503 340.142 449.716 340.114C445.919 340.042 442.279 338.582 439.484 336.01C436.69 333.437 434.934 329.931 434.548 326.152C434.338 324.374 434.514 322.571 435.063 320.866C435.612 319.161 436.521 317.594 437.729 316.272C438.937 314.949 440.415 313.902 442.063 313.202C443.712 312.501 445.492 312.163 447.282 312.212C451.076 312.283 454.713 313.74 457.508 316.308C460.302 318.876 462.06 322.377 462.45 326.152Z" fill="#263238"/>
<path d="M443.641 328.483C442.513 327.61 441.768 326.335 441.56 324.925C441.489 324.511 441.513 324.087 441.631 323.685C441.749 323.282 441.958 322.912 442.241 322.603C442.524 322.293 442.874 322.053 443.265 321.9C443.655 321.747 444.076 321.686 444.494 321.72C446.325 321.72 447.011 322.573 448.177 323.801C449.134 322.594 449.675 321.72 451.506 321.72C452.393 321.686 453.258 322.004 453.912 322.604C454.567 323.204 454.958 324.038 455.001 324.925C455.042 325.582 454.94 326.24 454.703 326.854C454.466 327.468 454.099 328.023 453.628 328.483L449.03 333.497L443.641 328.483Z" fill="#000045"/>
<path d="M383.737 256.241C383.95 258.021 383.777 259.826 383.229 261.534C382.682 263.241 381.773 264.811 380.565 266.135C379.357 267.46 377.877 268.509 376.227 269.211C374.577 269.913 372.796 270.251 371.003 270.202C367.206 270.13 363.566 268.67 360.771 266.098C357.977 263.526 356.221 260.019 355.835 256.241C355.625 254.462 355.801 252.659 356.35 250.954C356.899 249.249 357.808 247.682 359.016 246.36C360.224 245.037 361.702 243.99 363.35 243.29C364.999 242.589 366.778 242.252 368.569 242.3C372.364 242.367 376.004 243.822 378.799 246.391C381.594 248.96 383.351 252.464 383.737 256.241Z" fill="#263238"/>
<path d="M378.577 256.241C378.692 257.355 378.569 258.481 378.217 259.544C377.865 260.607 377.292 261.584 376.535 262.41C375.778 263.236 374.855 263.891 373.826 264.334C372.797 264.777 371.686 264.997 370.566 264.98C368.171 264.936 365.874 264.017 364.111 262.395C362.347 260.773 361.239 258.562 360.995 256.178C360.874 255.059 360.992 253.927 361.342 252.857C361.693 251.787 362.267 250.804 363.027 249.973C363.787 249.142 364.715 248.483 365.749 248.039C366.784 247.595 367.901 247.376 369.027 247.398C371.426 247.443 373.725 248.369 375.487 249.999C377.248 251.63 378.348 253.851 378.577 256.241Z" fill="#000045"/>
<path opacity="0.5" d="M378.577 256.241C378.692 257.355 378.569 258.481 378.217 259.544C377.865 260.607 377.292 261.584 376.535 262.41C375.778 263.236 374.855 263.891 373.826 264.334C372.797 264.777 371.686 264.997 370.566 264.98C368.171 264.936 365.874 264.017 364.111 262.395C362.347 260.773 361.239 258.562 360.995 256.178C360.874 255.059 360.992 253.927 361.342 252.857C361.693 251.787 362.267 250.804 363.027 249.973C363.787 249.142 364.715 248.483 365.749 248.039C366.784 247.595 367.901 247.376 369.027 247.398C371.426 247.443 373.725 248.369 375.487 249.999C377.248 251.63 378.348 253.851 378.577 256.241Z" fill="white"/>
<path d="M373.001 258.113C372.182 258.903 371.09 259.344 369.952 259.344C368.815 259.344 367.723 258.903 366.904 258.113C366.838 258.033 366.755 257.968 366.662 257.922C366.568 257.877 366.466 257.852 366.362 257.849C366.259 257.846 366.155 257.866 366.059 257.906C365.964 257.946 365.878 258.007 365.807 258.083C365.737 258.16 365.683 258.251 365.651 258.349C365.618 258.448 365.607 258.553 365.619 258.656C365.63 258.759 365.663 258.859 365.716 258.949C365.769 259.038 365.841 259.115 365.926 259.174C367.033 260.272 368.529 260.888 370.088 260.888C371.647 260.888 373.142 260.272 374.249 259.174C374.915 258.509 373.75 257.447 373.084 258.113H373.001Z" fill="#000045"/>
<path d="M367.445 253.39C367.445 254.347 367.258 255.117 366.842 255.117C366.426 255.117 366.03 254.347 365.947 253.39C365.864 252.433 366.134 251.663 366.551 251.663C366.967 251.663 367.362 252.495 367.445 253.39Z" fill="#000045"/>
<path d="M373.126 253.39C373.126 254.347 372.938 255.117 372.543 255.117C372.148 255.117 371.731 254.347 371.627 253.39C371.523 252.433 371.815 251.663 372.231 251.663C372.647 251.663 373.042 252.495 373.126 253.39Z" fill="#000045"/>
<path d="M468.921 243.569C469.131 245.348 468.955 247.151 468.406 248.856C467.858 250.561 466.948 252.127 465.74 253.45C464.532 254.772 463.054 255.819 461.406 256.52C459.757 257.22 457.978 257.558 456.187 257.51C452.393 257.439 448.756 255.982 445.962 253.414C443.168 250.845 441.409 247.344 441.019 243.569C440.827 241.793 441.015 239.996 441.57 238.297C442.125 236.599 443.035 235.038 444.239 233.718C445.443 232.398 446.914 231.349 448.554 230.64C450.194 229.932 451.966 229.58 453.753 229.608C457.55 229.679 461.19 231.139 463.985 233.712C466.78 236.284 468.535 239.791 468.921 243.569Z" fill="#263238"/>
<path d="M463.761 243.569C463.882 244.687 463.764 245.817 463.415 246.885C463.066 247.954 462.494 248.936 461.736 249.766C460.979 250.597 460.053 251.256 459.021 251.702C457.989 252.147 456.874 252.368 455.75 252.35C453.358 252.307 451.064 251.39 449.301 249.773C447.538 248.155 446.428 245.949 446.179 243.569C446.058 242.449 446.177 241.316 446.527 240.245C446.877 239.174 447.451 238.19 448.21 237.357C448.97 236.525 449.897 235.864 450.932 235.417C451.966 234.971 453.084 234.749 454.211 234.768C456.602 234.816 458.894 235.738 460.653 237.359C462.412 238.98 463.518 241.189 463.761 243.569Z" fill="#000045"/>
<path opacity="0.5" d="M463.761 243.569C463.882 244.687 463.764 245.817 463.415 246.885C463.066 247.954 462.494 248.936 461.736 249.766C460.979 250.597 460.053 251.256 459.021 251.702C457.989 252.147 456.874 252.368 455.75 252.35C453.358 252.307 451.064 251.39 449.301 249.773C447.538 248.155 446.428 245.949 446.179 243.569C446.058 242.449 446.177 241.316 446.527 240.245C446.877 239.174 447.451 238.19 448.21 237.357C448.97 236.525 449.897 235.864 450.932 235.417C451.966 234.971 453.084 234.749 454.211 234.768C456.602 234.816 458.894 235.738 460.653 237.359C462.412 238.98 463.518 241.189 463.761 243.569Z" fill="white"/>
<path d="M452.296 247.959C453.113 247.159 454.211 246.71 455.355 246.71C456.499 246.71 457.597 247.159 458.414 247.959C458.485 248.024 458.568 248.073 458.658 248.105C458.748 248.137 458.844 248.152 458.939 248.147C459.035 248.142 459.129 248.118 459.215 248.077C459.302 248.036 459.379 247.978 459.444 247.907C459.508 247.836 459.557 247.753 459.59 247.663C459.622 247.573 459.636 247.477 459.631 247.382C459.626 247.286 459.603 247.192 459.561 247.106C459.52 247.019 459.463 246.942 459.392 246.877C458.277 245.794 456.784 245.189 455.23 245.189C453.676 245.189 452.183 245.794 451.069 246.877C450.424 247.543 451.589 248.604 452.234 247.959H452.296Z" fill="#000045"/>
<path d="M452.546 240.698C452.546 241.655 452.359 242.425 451.943 242.425C451.527 242.425 451.131 241.655 451.048 240.698C450.965 239.741 451.235 238.971 451.651 238.971C452.068 238.971 452.546 239.741 452.546 240.698Z" fill="#000045"/>
<path d="M458.31 240.698C458.31 241.655 458.122 242.425 457.727 242.425C457.332 242.425 456.916 241.655 456.832 240.698C456.749 239.741 456.999 238.971 457.415 238.971C457.831 238.971 458.226 239.741 458.31 240.698Z" fill="#000045"/>
<path d="M381.461 309.203C386.562 303.874 385.987 295.044 380.177 289.482C374.366 283.919 365.52 283.73 360.418 289.059C355.317 294.389 355.891 303.218 361.702 308.781C367.513 314.343 376.359 314.532 381.461 309.203Z" fill="#263238"/>
<path d="M377.568 305.393C380.778 302.04 380.413 296.48 376.752 292.976C373.092 289.471 367.521 289.349 364.311 292.703C361.101 296.056 361.466 301.616 365.126 305.12C368.787 308.625 374.357 308.747 377.568 305.393Z" fill="#000045"/>
<path opacity="0.5" d="M377.568 305.393C380.778 302.04 380.413 296.48 376.752 292.976C373.092 289.471 367.521 289.349 364.311 292.703C361.101 296.056 361.466 301.616 365.126 305.12C368.787 308.625 374.357 308.747 377.568 305.393Z" fill="white"/>
<path d="M366.842 301.85C368.008 302.987 369.572 303.624 371.201 303.624C372.83 303.624 374.394 302.987 375.56 301.85L375.435 300.393H366.696L366.842 301.85Z" fill="#000045"/>
<path d="M369.796 296.44C369.281 295.946 368.595 295.671 367.882 295.671C367.169 295.671 366.483 295.946 365.968 296.44C365.448 296.898 366.322 297.709 366.842 297.231C367.134 296.938 367.531 296.774 367.945 296.774C368.358 296.774 368.755 296.938 369.047 297.231C369.651 297.709 370.379 296.898 369.796 296.44Z" fill="#000045"/>
<path d="M375.56 296.44C375.045 295.946 374.359 295.671 373.646 295.671C372.932 295.671 372.247 295.946 371.731 296.44C371.211 296.898 372.085 297.709 372.605 297.231C372.904 296.942 373.303 296.781 373.719 296.781C374.134 296.781 374.533 296.942 374.832 297.231C375.414 297.709 376.163 296.898 375.56 296.44Z" fill="#000045"/>
<path d="M529.283 398.727H464.76V409.214H593.805V404.907L529.283 398.727Z" fill="#000045"/>
<path opacity="0.6" d="M529.283 398.727H464.76V409.214H593.805V404.907L529.283 398.727Z" fill="white"/>
<path opacity="0.6" d="M529.283 409.214H464.76V398.727L529.283 404.907V409.214Z" fill="white"/>
<g opacity="0.5">
<path d="M736.021 284.767L727.137 183.291L715.11 184.352L663.655 332.811L721.103 327.734L736.021 284.767Z" fill="white"/>
</g>
<g opacity="0.5">
<path d="M462.762 344.317L512.283 201.497H456.583L407.062 344.317H462.762Z" fill="white"/>
</g>
<path opacity="0.5" d="M261.267 339.323L301.903 222.117L300.051 200.956L254.9 197.024L207.189 334.621L261.267 339.323Z" fill="white"/>
<path d="M220.006 417.308H634.608V426.151C634.608 426.621 634.515 427.086 634.336 427.521C634.156 427.955 633.892 428.349 633.56 428.682C633.227 429.014 632.833 429.278 632.399 429.457C631.964 429.637 631.499 429.73 631.029 429.73H223.669C222.719 429.73 221.809 429.353 221.138 428.682C220.467 428.01 220.09 427.1 220.09 426.151V417.308H220.006Z" fill="#000045"/>
<path opacity="0.2" d="M220.006 417.308H634.608V426.151C634.608 426.621 634.515 427.086 634.336 427.521C634.156 427.955 633.892 428.349 633.56 428.682C633.227 429.014 632.833 429.278 632.399 429.457C631.964 429.637 631.499 429.73 631.029 429.73H223.669C222.719 429.73 221.809 429.353 221.138 428.682C220.467 428.01 220.09 427.1 220.09 426.151V417.308H220.006Z" fill="black"/>
<path opacity="0.3" d="M220.006 417.308H407.686V429.792H223.669C223.199 429.792 222.733 429.7 222.299 429.52C221.865 429.34 221.47 429.076 221.138 428.744C220.806 428.412 220.542 428.017 220.362 427.583C220.182 427.149 220.09 426.683 220.09 426.213V417.37L220.006 417.308Z" fill="white"/>
<path d="M643.056 409.235H211.559C209.226 409.235 207.335 411.126 207.335 413.459V415.415C207.335 417.747 209.226 419.638 211.559 419.638H643.056C645.388 419.638 647.279 417.747 647.279 415.415V413.459C647.279 411.126 645.388 409.235 643.056 409.235Z" fill="#000045"/>
<path opacity="0.4" d="M211.559 409.235H407.686V419.638H211.559C210.455 419.638 209.396 419.2 208.616 418.42C207.836 417.639 207.397 416.581 207.397 415.477V413.521C207.38 412.964 207.476 412.41 207.677 411.89C207.879 411.371 208.183 410.897 208.571 410.498C208.959 410.098 209.423 409.78 209.937 409.563C210.45 409.346 211.001 409.235 211.559 409.235Z" fill="white"/>
<path d="M385.797 679.893H241.895C237.746 679.893 233.766 678.245 230.831 675.31C227.897 672.376 226.249 668.396 226.249 664.246V445.418C226.249 441.269 227.897 437.289 230.831 434.354C233.766 431.42 237.746 429.771 241.895 429.771H385.797C389.947 429.771 393.927 431.42 396.861 434.354C399.795 437.289 401.444 441.269 401.444 445.418V664.246C401.444 668.396 399.795 672.376 396.861 675.31C393.927 678.245 389.947 679.893 385.797 679.893ZM241.895 438.094C239.955 438.1 238.095 438.873 236.723 440.245C235.35 441.618 234.577 443.478 234.571 445.418V664.246C234.577 666.187 235.35 668.047 236.723 669.419C238.095 670.791 239.955 671.565 241.895 671.57H385.797C387.738 671.565 389.598 670.791 390.97 669.419C392.342 668.047 393.116 666.187 393.121 664.246V445.418C393.116 443.478 392.342 441.618 390.97 440.245C389.598 438.873 387.738 438.1 385.797 438.094H241.895Z" fill="#263238"/>
<g opacity="0.4">
<path opacity="0.2" d="M385.797 679.893H241.895C237.746 679.893 233.766 678.245 230.831 675.31C227.897 672.376 226.249 668.396 226.249 664.246V445.418C226.249 441.269 227.897 437.289 230.831 434.354C233.766 431.42 237.746 429.771 241.895 429.771H385.797C389.947 429.771 393.927 431.42 396.861 434.354C399.795 437.289 401.444 441.269 401.444 445.418V664.246C401.444 668.396 399.795 672.376 396.861 675.31C393.927 678.245 389.947 679.893 385.797 679.893ZM241.895 438.094C239.955 438.1 238.095 438.873 236.723 440.245C235.35 441.618 234.577 443.478 234.571 445.418V664.246C234.577 666.187 235.35 668.047 236.723 669.419C238.095 670.791 239.955 671.565 241.895 671.57H385.797C387.738 671.565 389.598 670.791 390.97 669.419C392.342 668.047 393.116 666.187 393.121 664.246V445.418C393.116 443.478 392.342 441.618 390.97 440.245C389.598 438.873 387.738 438.1 385.797 438.094H241.895Z" fill="white"/>
</g>
<path opacity="0.2" d="M385.797 429.771H241.895C238.021 429.777 234.287 431.217 231.412 433.815C228.538 436.413 226.728 439.983 226.332 443.837H234.759C235.118 442.211 236.021 440.756 237.318 439.712C238.616 438.668 240.23 438.098 241.895 438.094H385.797C387.462 438.098 389.077 438.668 390.374 439.712C391.671 440.756 392.574 442.211 392.934 443.837H401.361C400.965 439.983 399.155 436.413 396.28 433.815C393.406 431.217 389.671 429.777 385.797 429.771Z" fill="black"/>
<path d="M609.806 679.893H465.904C461.754 679.893 457.775 678.245 454.84 675.31C451.906 672.376 450.257 668.396 450.257 664.246V445.418C450.257 441.269 451.906 437.289 454.84 434.354C457.775 431.42 461.754 429.771 465.904 429.771H609.806C613.954 429.777 617.931 431.427 620.864 434.36C623.797 437.294 625.447 441.27 625.453 445.418V664.246C625.447 668.394 623.797 672.371 620.864 675.304C617.931 678.237 613.954 679.888 609.806 679.893ZM465.904 438.094C463.964 438.1 462.104 438.873 460.731 440.245C459.359 441.618 458.586 443.478 458.58 445.418V664.246C458.586 666.187 459.359 668.047 460.731 669.419C462.104 670.791 463.964 671.565 465.904 671.57H609.806C611.747 671.565 613.606 670.791 614.979 669.419C616.351 668.047 617.124 666.187 617.13 664.246V445.418C617.124 443.478 616.351 441.618 614.979 440.245C613.606 438.873 611.747 438.1 609.806 438.094H465.904Z" fill="#263238"/>
<path opacity="0.1" d="M609.806 679.893H465.904C461.754 679.893 457.775 678.245 454.84 675.31C451.906 672.376 450.257 668.396 450.257 664.246V445.418C450.257 441.269 451.906 437.289 454.84 434.354C457.775 431.42 461.754 429.771 465.904 429.771H609.806C613.954 429.777 617.931 431.427 620.864 434.36C623.797 437.294 625.447 441.27 625.453 445.418V664.246C625.447 668.394 623.797 672.371 620.864 675.304C617.931 678.237 613.954 679.888 609.806 679.893ZM465.904 438.094C463.964 438.1 462.104 438.873 460.731 440.245C459.359 441.618 458.586 443.478 458.58 445.418V664.246C458.586 666.187 459.359 668.047 460.731 669.419C462.104 670.791 463.964 671.565 465.904 671.57H609.806C611.747 671.565 613.606 670.791 614.979 669.419C616.351 668.047 617.124 666.187 617.13 664.246V445.418C617.124 443.478 616.351 441.618 614.979 440.245C613.606 438.873 611.747 438.1 609.806 438.094H465.904Z" fill="white"/>
<path opacity="0.2" d="M609.806 429.771H465.904C462.03 429.777 458.295 431.217 455.421 433.815C452.547 436.413 450.737 439.983 450.341 443.837H458.663C459.027 442.209 459.934 440.754 461.235 439.71C462.536 438.667 464.153 438.097 465.821 438.094H609.723C611.41 438.087 613.048 438.663 614.36 439.725C615.672 440.786 616.577 442.268 616.922 443.92H625.349C624.972 440.055 623.174 436.467 620.302 433.853C617.43 431.239 613.689 429.784 609.806 429.771Z" fill="black"/>
<path d="M351.029 481.186H190.086C180.41 481.186 172.566 489.029 172.566 498.705V663.185C172.566 672.861 180.41 680.705 190.086 680.705H351.029C360.704 680.705 368.548 672.861 368.548 663.185V498.705C368.548 489.029 360.704 481.186 351.029 481.186Z" fill="#000045"/>
<path opacity="0.4" d="M351.029 481.186H190.086C180.41 481.186 172.566 489.029 172.566 498.705V663.185C172.566 672.861 180.41 680.705 190.086 680.705H351.029C360.704 680.705 368.548 672.861 368.548 663.185V498.705C368.548 489.029 360.704 481.186 351.029 481.186Z" fill="white"/>
<path opacity="0.1" d="M172.566 663.039V663.164C172.564 665.467 173.015 667.747 173.894 669.875C174.773 672.003 176.063 673.937 177.69 675.566C179.317 677.195 181.25 678.487 183.377 679.369C185.504 680.251 187.783 680.705 190.086 680.705H351.029C353.331 680.705 355.611 680.251 357.738 679.369C359.865 678.487 361.797 677.195 363.424 675.566C365.051 673.937 366.341 672.003 367.22 669.875C368.1 667.747 368.551 665.467 368.548 663.164V663.039H172.566Z" fill="black"/>
<path d="M351.029 481.186H306.397C296.722 481.186 288.878 489.029 288.878 498.705V663.185C288.878 672.861 296.722 680.705 306.397 680.705H351.029C360.704 680.705 368.548 672.861 368.548 663.185V498.705C368.548 489.029 360.704 481.186 351.029 481.186Z" fill="#000045"/>
<path opacity="0.3" d="M351.029 490.549H306.397C301.893 490.549 298.241 494.201 298.241 498.705V663.185C298.241 667.69 301.893 671.341 306.397 671.341H351.029C355.533 671.341 359.185 667.69 359.185 663.185V498.705C359.185 494.201 355.533 490.549 351.029 490.549Z" fill="white"/>
<path opacity="0.7" d="M353.172 503.553H304.275V516.558H353.172V503.553Z" fill="white"/>
<path opacity="0.7" d="M353.172 519.159H304.275V532.163H353.172V519.159Z" fill="white"/>
<path d="M328.723 591.109C334.343 591.109 338.898 586.554 338.898 580.935C338.898 575.315 334.343 570.76 328.723 570.76C323.104 570.76 318.549 575.315 318.549 580.935C318.549 586.554 323.104 591.109 328.723 591.109Z" fill="#000045"/>
<g opacity="0.9">
<path d="M331.075 578.916C331.545 579.384 331.866 579.981 331.997 580.631C332.128 581.282 332.063 581.956 331.81 582.57C331.557 583.183 331.127 583.707 330.576 584.076C330.025 584.445 329.376 584.642 328.713 584.642C328.05 584.642 327.401 584.445 326.85 584.076C326.298 583.707 325.869 583.183 325.616 582.57C325.363 581.956 325.298 581.282 325.429 580.631C325.56 579.981 325.881 579.384 326.351 578.916C327.308 577.876 325.748 576.295 324.77 577.356C323.99 578.136 323.459 579.129 323.244 580.211C323.029 581.293 323.139 582.414 323.561 583.433C323.983 584.452 324.698 585.323 325.615 585.936C326.532 586.548 327.61 586.875 328.713 586.875C329.816 586.875 330.894 586.548 331.811 585.936C332.728 585.323 333.443 584.452 333.865 583.433C334.287 582.414 334.397 581.293 334.182 580.211C333.967 579.129 333.436 578.136 332.656 577.356C331.678 576.295 330.117 577.876 331.075 578.916Z" fill="white"/>
<path d="M327.704 575.005V580.082C327.741 580.351 327.874 580.597 328.078 580.776C328.283 580.954 328.545 581.053 328.817 581.053C329.089 581.053 329.351 580.954 329.556 580.776C329.76 580.597 329.893 580.351 329.93 580.082V575.005C329.893 574.736 329.76 574.489 329.556 574.311C329.351 574.132 329.089 574.034 328.817 574.034C328.545 574.034 328.283 574.132 328.078 574.311C327.874 574.489 327.741 574.736 327.704 575.005Z" fill="white"/>
</g>
<path d="M309.435 614.184C311.159 614.184 312.556 612.787 312.556 611.063C312.556 609.34 311.159 607.942 309.435 607.942C307.711 607.942 306.314 609.34 306.314 611.063C306.314 612.787 307.711 614.184 309.435 614.184Z" fill="#000045"/>
<path d="M322.294 614.184C324.018 614.184 325.415 612.787 325.415 611.063C325.415 609.34 324.018 607.942 322.294 607.942C320.57 607.942 319.173 609.34 319.173 611.063C319.173 612.787 320.57 614.184 322.294 614.184Z" fill="#000045"/>
<path d="M335.153 614.184C336.876 614.184 338.274 612.787 338.274 611.063C338.274 609.34 336.876 607.942 335.153 607.942C333.429 607.942 332.032 609.34 332.032 611.063C332.032 612.787 333.429 614.184 335.153 614.184Z" fill="#000045"/>
<path d="M348.011 614.184C349.735 614.184 351.133 612.787 351.133 611.063C351.133 609.34 349.735 607.942 348.011 607.942C346.288 607.942 344.89 609.34 344.89 611.063C344.89 612.787 346.288 614.184 348.011 614.184Z" fill="#000045"/>
<path d="M315.865 625.275C317.588 625.275 318.986 623.877 318.986 622.154C318.986 620.43 317.588 619.032 315.865 619.032C314.141 619.032 312.744 620.43 312.744 622.154C312.744 623.877 314.141 625.275 315.865 625.275Z" fill="#000045"/>
<path d="M328.723 625.275C330.447 625.275 331.844 623.877 331.844 622.154C331.844 620.43 330.447 619.032 328.723 619.032C327 619.032 325.602 620.43 325.602 622.154C325.602 623.877 327 625.275 328.723 625.275Z" fill="#000045"/>
<path d="M341.582 625.275C343.306 625.275 344.703 623.877 344.703 622.154C344.703 620.43 343.306 619.032 341.582 619.032C339.858 619.032 338.461 620.43 338.461 622.154C338.461 623.877 339.858 625.275 341.582 625.275Z" fill="#000045"/>
<path d="M309.435 637.572C311.159 637.572 312.556 636.174 312.556 634.451C312.556 632.727 311.159 631.329 309.435 631.329C307.711 631.329 306.314 632.727 306.314 634.451C306.314 636.174 307.711 637.572 309.435 637.572Z" fill="#000045"/>
<path d="M322.294 637.572C324.018 637.572 325.415 636.174 325.415 634.451C325.415 632.727 324.018 631.329 322.294 631.329C320.57 631.329 319.173 632.727 319.173 634.451C319.173 636.174 320.57 637.572 322.294 637.572Z" fill="#000045"/>
<path d="M335.153 637.572C336.876 637.572 338.274 636.174 338.274 634.451C338.274 632.727 336.876 631.329 335.153 631.329C333.429 631.329 332.032 632.727 332.032 634.451C332.032 636.174 333.429 637.572 335.153 637.572Z" fill="#000045"/>
<path d="M348.011 637.572C349.735 637.572 351.133 636.174 351.133 634.451C351.133 632.727 349.735 631.329 348.011 631.329C346.288 631.329 344.89 632.727 344.89 634.451C344.89 636.174 346.288 637.572 348.011 637.572Z" fill="#000045"/>
<path d="M315.865 648.662C317.588 648.662 318.986 647.264 318.986 645.541C318.986 643.817 317.588 642.42 315.865 642.42C314.141 642.42 312.744 643.817 312.744 645.541C312.744 647.264 314.141 648.662 315.865 648.662Z" fill="#000045"/>
<path d="M328.723 648.662C330.447 648.662 331.844 647.264 331.844 645.541C331.844 643.817 330.447 642.42 328.723 642.42C327 642.42 325.602 643.817 325.602 645.541C325.602 647.264 327 648.662 328.723 648.662Z" fill="#000045"/>
<path d="M341.582 648.662C343.306 648.662 344.703 647.264 344.703 645.541C344.703 643.817 343.306 642.42 341.582 642.42C339.858 642.42 338.461 643.817 338.461 645.541C338.461 647.264 339.858 648.662 341.582 648.662Z" fill="#000045"/>
<path d="M309.435 660.959C311.159 660.959 312.556 659.561 312.556 657.838C312.556 656.114 311.159 654.717 309.435 654.717C307.711 654.717 306.314 656.114 306.314 657.838C306.314 659.561 307.711 660.959 309.435 660.959Z" fill="#000045"/>
<path d="M322.294 660.959C324.018 660.959 325.415 659.561 325.415 657.838C325.415 656.114 324.018 654.717 322.294 654.717C320.57 654.717 319.173 656.114 319.173 657.838C319.173 659.561 320.57 660.959 322.294 660.959Z" fill="#000045"/>
<path d="M335.153 660.959C336.876 660.959 338.274 659.561 338.274 657.838C338.274 656.114 336.876 654.717 335.153 654.717C333.429 654.717 332.032 656.114 332.032 657.838C332.032 659.561 333.429 660.959 335.153 660.959Z" fill="#000045"/>
<path d="M348.011 660.959C349.735 660.959 351.133 659.561 351.133 657.838C351.133 656.114 349.735 654.717 348.011 654.717C346.288 654.717 344.89 656.114 344.89 657.838C344.89 659.561 346.288 660.959 348.011 660.959Z" fill="#000045"/>
<path d="M594.305 389.052L581.82 383.393L564.197 390.737V399.518C564.197 399.518 591.558 398.602 591.537 398.644C591.516 398.686 622.394 408.923 633.796 407.341C645.199 405.76 681.424 355.178 681.424 355.178L663.176 339.219L628.47 388.678L594.305 389.052Z" fill="#FCC1BB"/>
<path opacity="0.1" d="M594.305 389.052L581.82 383.393L564.197 390.737V399.518C564.197 399.518 591.558 398.602 591.537 398.644L593.618 399.331L602.44 388.927L594.305 389.052Z" fill="black"/>
<path d="M650.9 353.597C650.9 353.597 663.509 331.167 671.582 324.051C676.472 319.723 683.296 318.391 687.895 317.996C688.581 317.939 689.272 318.024 689.924 318.246C690.576 318.469 691.175 318.824 691.683 319.289C692.191 319.754 692.597 320.319 692.876 320.949C693.155 321.579 693.301 322.259 693.305 322.948C693.305 331.833 691.057 351.121 672.81 370.992L650.9 353.597Z" fill="#263238"/>
<path d="M650.9 349.373C660.672 354.363 669.025 361.742 675.182 370.825L670.271 374.612C663.882 366.816 656.272 360.105 647.737 354.741L650.9 349.373Z" fill="#000045"/>
<path d="M620.043 268.35L613.801 278.13C614.946 278.861 616.247 279.312 617.6 279.446C618.952 279.58 620.316 279.392 621.583 278.899L620.043 268.35Z" fill="#EB827E"/>
<path d="M619.003 274.551C617.516 274.651 616.034 274.302 614.749 273.549C613.463 272.796 612.434 271.674 611.794 270.328C611.155 268.983 610.935 267.476 611.162 266.004C611.39 264.532 612.055 263.162 613.071 262.073C614.087 260.983 615.408 260.225 616.861 259.895C618.313 259.566 619.832 259.681 621.218 260.225C622.605 260.77 623.796 261.719 624.636 262.949C625.477 264.179 625.928 265.633 625.931 267.123C625.993 269.025 625.299 270.875 624 272.267C622.702 273.659 620.905 274.48 619.003 274.551ZM619.003 261.276C617.82 261.171 616.633 261.426 615.597 262.008C614.562 262.59 613.727 263.471 613.202 264.536C612.676 265.601 612.485 266.801 612.654 267.976C612.822 269.152 613.342 270.249 614.145 271.124C614.948 271.998 615.997 272.61 617.154 272.878C618.311 273.146 619.522 273.058 620.628 272.625C621.734 272.192 622.683 271.435 623.351 270.453C624.019 269.471 624.375 268.31 624.371 267.123C624.427 265.637 623.895 264.19 622.89 263.095C621.884 262 620.487 261.346 619.003 261.276Z" fill="#000045"/>
<path d="M616.298 267.06C616.298 268.329 616.922 269.37 617.754 269.37C618.586 269.37 619.315 268.329 619.294 267.102C619.273 265.874 618.67 264.792 617.837 264.792C617.005 264.792 616.319 265.729 616.298 267.06Z" fill="#1A2E35"/>
<path d="M665.028 259.091C665.59 275.882 666.193 282.998 658.578 292.382C646.509 302.328 626.347 303.493 620.771 287.201C615.777 272.637 615.694 247.668 631.424 239.345C634.881 237.513 638.75 236.597 642.661 236.686C646.573 236.774 650.396 237.864 653.766 239.851C657.137 241.837 659.942 244.655 661.913 248.034C663.885 251.414 664.957 255.242 665.028 259.154V259.091Z" fill="#FCC1BB"/>
<path opacity="0.2" d="M641.453 299.519L641.329 298.687C641.268 298.259 641.116 297.848 640.883 297.483C640.651 297.118 640.343 296.807 639.981 296.57C639.618 296.334 639.209 296.178 638.781 296.112C638.354 296.047 637.917 296.073 637.5 296.19L630.675 298.042C634.09 299.42 637.794 299.927 641.453 299.519Z" fill="#1A2E35"/>
<path d="M620.834 261.255C620.725 261.274 620.613 261.262 620.51 261.222C620.408 261.182 620.318 261.114 620.251 261.026C619.733 260.385 619.071 259.876 618.319 259.539C617.567 259.203 616.746 259.049 615.923 259.091C615.831 259.115 615.735 259.118 615.641 259.101C615.547 259.084 615.458 259.048 615.38 258.993C615.302 258.939 615.236 258.869 615.187 258.787C615.138 258.705 615.108 258.614 615.097 258.519C615.087 258.425 615.097 258.329 615.126 258.239C615.156 258.148 615.205 258.065 615.269 257.995C615.334 257.925 615.412 257.87 615.5 257.832C615.588 257.795 615.682 257.778 615.778 257.78C616.818 257.71 617.86 257.891 618.816 258.308C619.771 258.724 620.613 259.364 621.271 260.173C621.389 260.3 621.455 260.468 621.455 260.641C621.455 260.815 621.389 260.982 621.271 261.109C621.211 261.162 621.142 261.202 621.067 261.227C620.992 261.252 620.913 261.262 620.834 261.255Z" fill="#1A2E35"/>
<path d="M640.829 295.275L644.512 320.201L665.34 315.894L658.661 290.364L640.829 295.275Z" fill="#FCC1BB"/>
<path d="M619.96 245.483C627.055 258.966 631.965 246.628 630.655 257.51C629.344 268.392 633.255 271.908 633.255 271.908L647.529 293.194C647.903 293.73 648.455 294.118 649.086 294.289C649.717 294.461 650.389 294.404 650.983 294.13C652.103 293.51 653.338 293.126 654.611 293C655.885 292.875 657.171 293.012 658.39 293.402C658.836 293.598 659.328 293.665 659.81 293.595C660.292 293.525 660.744 293.321 661.116 293.007C668.395 286.125 673.064 276.934 674.329 266.998C678.927 237.66 656.372 233.166 656.372 233.166C643.888 230.565 647.051 217.29 639.602 217.29C633.921 217.29 635.586 226.632 635.586 226.632C635.586 226.632 629.51 222.075 625.973 223.636C621.416 225.717 625.453 234.976 625.453 234.976C625.453 234.976 613.01 232.25 619.96 245.483Z" fill="#1A2E35"/>
<path d="M634.629 264.002H613.822L614.82 261.921H634.629V264.002Z" fill="#000045"/>
<path d="M630.363 266.582C629.751 269.948 630.499 273.421 632.444 276.236C635.086 279.961 639.289 278.317 640.975 274.343C642.494 270.743 642.931 264.522 639.102 262.212C638.264 261.726 637.318 261.456 636.35 261.426C635.382 261.396 634.421 261.607 633.555 262.041C632.688 262.474 631.943 263.116 631.386 263.908C630.829 264.701 630.477 265.62 630.363 266.582Z" fill="#FFC3BD"/>
<path d="M635.211 311.088C635.211 311.088 648.59 298.437 662.614 299.478C672.144 300.164 675.098 312.128 675.098 312.128L635.211 311.088Z" fill="#263238"/>
<path opacity="0.2" d="M635.211 311.088C635.211 311.088 648.59 298.437 662.614 299.478C672.144 300.164 675.098 312.128 675.098 312.128L635.211 311.088Z" fill="white"/>
<path d="M644.242 464.02L614.945 320.951C614.645 319.633 614.633 318.266 614.909 316.943C615.185 315.62 615.742 314.372 616.544 313.284C617.346 312.196 618.372 311.294 619.554 310.638C620.736 309.983 622.045 309.59 623.393 309.486C641.766 307.946 678.823 306.469 691.224 317.809C720.104 344.317 722.434 466.059 722.434 466.059L644.242 464.02Z" fill="#263238"/>
<path opacity="0.5" d="M623.164 318.724C620.302 319.862 617.672 321.512 615.403 323.593L625.037 370.659C633.651 351.37 633.047 318.641 633.047 318.641L623.164 318.724Z" fill="black"/>
<path d="M535.899 387.263L523.415 381.021L505.999 389.094V398.707C505.999 398.707 533.049 397.708 533.049 397.77C533.049 397.833 563.552 409.027 574.829 407.3C586.107 405.573 621.999 350.08 621.999 350.08L603.959 332.561L569.627 386.847L535.899 387.263Z" fill="#FCC1BB"/>
<path d="M591.953 348.374C591.953 348.374 604.438 323.739 612.407 315.936C620.376 308.133 633.568 309.195 633.568 309.195C633.568 309.195 638.249 337.742 613.634 367.454L591.953 348.374Z" fill="#263238"/>
<path d="M591.953 343.734C601.873 349.379 610.171 357.483 616.048 367.267L611.2 371.428C611.2 371.428 601.296 357.571 588.916 349.623L591.953 343.734Z" fill="#263238"/>
<path opacity="0.2" d="M591.953 343.734C601.873 349.379 610.171 357.483 616.048 367.267L611.2 371.428C611.2 371.428 601.296 357.571 588.916 349.623L591.953 343.734Z" fill="white"/>
<path d="M635.815 620.198L642.952 654.737L657.017 652.657L653.626 619.032L635.815 620.198Z" fill="#FCC1BB"/>
<path opacity="0.2" d="M655.852 641.192L653.626 619.032L635.815 620.198L640.267 641.795L655.852 641.192Z" fill="black"/>
<path d="M719.272 462.98C719.272 462.98 726.429 500.432 701.981 500.432C677.533 500.432 645.011 508.422 645.011 508.422C645.011 508.422 654.375 517.307 656.455 630.643L636.168 631.517C636.168 631.517 602.461 503.595 609.119 489.529C618.482 469.742 666.963 462.98 666.963 462.98H719.272Z" fill="#000045"/>
<path opacity="0.2" d="M719.272 462.98C719.272 462.98 726.429 500.432 701.981 500.432C677.533 500.432 645.011 508.422 645.011 508.422C645.011 508.422 654.375 517.307 656.455 630.643L636.168 631.517C636.168 631.517 602.461 503.595 609.119 489.529C618.482 469.742 666.963 462.98 666.963 462.98H719.272Z" fill="black"/>
<path d="M631.861 625.441L659.452 624.754L658.557 636.198L635.419 637.176L631.861 625.441Z" fill="#000045"/>
<path opacity="0.5" d="M631.861 625.441L659.452 624.754L658.557 636.198L635.419 637.176L631.861 625.441Z" fill="white"/>
<path d="M636.626 656.922C635.118 657.267 633.536 657.052 632.173 656.319C631.999 656.11 631.892 655.853 631.866 655.582C631.84 655.311 631.896 655.038 632.028 654.8C632.124 654.585 632.261 654.392 632.433 654.231C632.604 654.07 632.806 653.945 633.027 653.863C635.378 652.906 640.85 655.195 641.079 655.299C641.147 655.324 641.207 655.369 641.249 655.429C641.291 655.488 641.313 655.559 641.313 655.632C641.313 655.705 641.291 655.776 641.249 655.836C641.207 655.895 641.147 655.94 641.079 655.965C639.627 656.418 638.136 656.738 636.626 656.922ZM633.942 654.342C633.72 654.365 633.503 654.422 633.297 654.508C633.153 654.548 633.022 654.621 632.913 654.723C632.804 654.824 632.722 654.951 632.673 655.091C632.465 655.549 632.673 655.736 632.673 655.84C633.464 656.714 637.167 656.298 639.851 655.632C637.977 654.845 635.974 654.408 633.942 654.342Z" fill="#000045"/>
<path d="M640.996 655.965H640.85C638.998 655.403 635.107 652.657 635.211 650.971C635.211 650.555 635.44 650.056 636.397 649.827C636.751 649.741 637.119 649.731 637.477 649.795C637.835 649.86 638.176 649.998 638.478 650.201C640 651.646 641.033 653.53 641.433 655.591C641.443 655.652 641.437 655.715 641.415 655.774C641.393 655.832 641.356 655.884 641.308 655.923C641.265 655.96 641.213 655.983 641.158 655.99C641.103 655.997 641.046 655.989 640.996 655.965ZM636.709 650.472H636.501C635.877 650.597 635.877 650.846 635.856 650.951C635.856 651.949 638.499 654.155 640.434 655.008C640.048 653.403 639.184 651.952 637.958 650.847C637.592 650.599 637.147 650.495 636.709 650.555V650.472Z" fill="#000045"/>
<path d="M642.307 653.739L658.286 651.824C658.579 651.781 658.878 651.842 659.13 651.999C659.381 652.155 659.569 652.395 659.66 652.677L664.112 665.328C664.221 665.594 664.273 665.879 664.266 666.165C664.259 666.452 664.193 666.734 664.072 666.994C663.951 667.253 663.777 667.485 663.562 667.675C663.347 667.865 663.095 668.008 662.822 668.095L662.385 668.2C656.601 668.803 651.441 669.094 644.262 669.968C635.794 670.988 638.02 671.737 628.116 673.068C622.124 673.88 620.209 667.18 622.727 666.556C634.192 663.684 634.982 660.022 638.957 655.32C639.846 654.406 641.036 653.844 642.307 653.739Z" fill="#000045"/>
<path d="M594.658 629.457L607.933 661.666L620.854 659.086L611.97 624.63L594.658 629.457Z" fill="#FCC1BB"/>
<path opacity="0.2" d="M617.879 647.601L611.97 624.63L594.658 629.457L603.293 650.389L617.879 647.601Z" fill="black"/>
<path d="M719.272 462.98C719.272 462.98 734.378 502.034 684.462 500.432C665.34 499.808 582.507 519.159 582.507 519.159C582.507 519.159 597.426 526.961 616.152 631.517L594.97 636.323C594.97 636.323 534.88 517.598 541.517 503.553C550.88 483.745 649.423 462.98 649.423 462.98H719.272Z" fill="#000045"/>
<path d="M592.39 634.971L617.525 629.602L620.126 640.006L596.032 645.561L592.39 634.971Z" fill="#000045"/>
<path opacity="0.5" d="M592.39 634.971L617.525 629.602L620.126 640.006L596.032 645.561L592.39 634.971Z" fill="white"/>
<path d="M599.943 663.143C598.442 663.497 596.863 663.282 595.511 662.54C595.331 662.335 595.218 662.079 595.189 661.807C595.159 661.535 595.213 661.261 595.345 661.021C595.544 660.592 595.902 660.256 596.344 660.085C598.716 659.107 604.167 661.416 604.417 661.52C604.479 661.551 604.531 661.599 604.568 661.657C604.605 661.716 604.624 661.784 604.625 661.853C604.616 661.926 604.588 661.995 604.545 662.053C604.501 662.112 604.442 662.158 604.375 662.186C602.928 662.63 601.445 662.951 599.943 663.143ZM597.28 660.563C597.051 660.587 596.827 660.643 596.614 660.73C596.477 660.775 596.35 660.848 596.243 660.945C596.135 661.042 596.049 661.16 595.99 661.292C595.782 661.749 595.99 661.957 595.99 662.061C596.801 662.935 600.484 662.519 603.168 661.853C601.305 661.055 599.307 660.617 597.28 660.563Z" fill="#000045"/>
<path d="M604.313 662.186C604.29 662.197 604.265 662.203 604.24 662.203C604.215 662.203 604.19 662.197 604.167 662.186C602.336 661.624 598.424 658.857 598.549 657.172C598.549 656.776 598.778 656.256 599.714 656.048C600.067 655.964 600.433 655.951 600.791 656.012C601.149 656.073 601.49 656.205 601.795 656.402C603.328 657.847 604.363 659.741 604.75 661.812C604.765 661.871 604.763 661.934 604.745 661.993C604.727 662.052 604.692 662.104 604.646 662.145C604.598 662.179 604.543 662.2 604.485 662.207C604.426 662.215 604.367 662.207 604.313 662.186ZM600.027 656.672H599.818C599.215 656.797 599.194 657.047 599.173 657.151C599.173 658.15 601.816 660.355 603.772 661.208C603.391 659.567 602.52 658.079 601.275 656.943C600.9 656.717 600.463 656.615 600.027 656.652V656.672Z" fill="#000045"/>
<path d="M605.624 659.96L621.624 658.025C621.916 657.993 622.209 658.06 622.458 658.215C622.707 658.369 622.897 658.603 622.998 658.878L627.45 671.549C627.558 671.816 627.61 672.102 627.601 672.39C627.593 672.678 627.525 672.961 627.402 673.221C627.279 673.481 627.103 673.712 626.886 673.901C626.668 674.09 626.414 674.231 626.139 674.317H625.702C619.918 674.899 614.758 675.211 607.58 676.065C599.111 677.084 601.337 677.854 591.454 679.186C585.462 679.976 583.547 673.297 586.044 672.652C597.509 669.802 598.3 666.14 602.295 661.416C603.185 660.535 604.372 660.016 605.624 659.96Z" fill="#000045"/>
<path d="M764.985 639.777C752.272 637.696 733.4 634.742 724.994 634.118C723.163 633.972 720.832 633.868 718.294 633.805V568.575H702.335V633.805C699.776 633.805 697.466 633.972 695.614 634.118C687.291 634.742 668.357 637.696 655.644 639.777C652.099 640.364 648.878 642.189 646.553 644.929C644.229 647.669 642.953 651.145 642.952 654.737V658.046H658.536L660.617 653.406C660.617 653.406 689.747 648.37 699.568 647.642C706.796 647.247 714.041 647.247 721.269 647.642C731.09 648.37 760.199 653.406 760.199 653.406L762.28 658.046H777.781V654.737C777.776 651.129 776.485 647.641 774.14 644.899C771.794 642.157 768.549 640.341 764.985 639.777Z" fill="#263238"/>
<path opacity="0.1" d="M764.985 639.777C752.272 637.696 733.4 634.742 724.994 634.118C723.163 633.972 720.832 633.868 718.294 633.805V568.575H702.335V633.805C699.776 633.805 697.466 633.972 695.614 634.118C687.291 634.742 668.357 637.696 655.644 639.777C652.099 640.364 648.878 642.189 646.553 644.929C644.229 647.669 642.953 651.145 642.952 654.737V658.046H658.536L660.617 653.406C660.617 653.406 689.747 648.37 699.568 647.642C706.796 647.247 714.041 647.247 721.269 647.642C731.09 648.37 760.199 653.406 760.199 653.406L762.28 658.046H777.781V654.737C777.776 651.129 776.485 647.641 774.14 644.899C771.794 642.157 768.549 640.341 764.985 639.777Z" fill="white"/>
<path d="M697.487 515.372H723.038V570.51C723.038 572.48 722.255 574.37 720.862 575.763C719.469 577.156 717.58 577.939 715.61 577.939H704.811C702.841 577.939 700.951 577.156 699.558 575.763C698.165 574.37 697.383 572.48 697.383 570.51V515.372H697.487Z" fill="#263238"/>
<path opacity="0.2" d="M723.142 515.372H697.487V530.602H723.142V515.372Z" fill="black"/>
<path d="M771.185 679.893C777.218 679.893 782.109 675.002 782.109 668.969C782.109 662.936 777.218 658.046 771.185 658.046C765.152 658.046 760.262 662.936 760.262 668.969C760.262 675.002 765.152 679.893 771.185 679.893Z" fill="#263238"/>
<path d="M649.443 679.893C655.476 679.893 660.367 675.002 660.367 668.969C660.367 662.936 655.476 658.046 649.443 658.046C643.41 658.046 638.52 662.936 638.52 668.969C638.52 675.002 643.41 679.893 649.443 679.893Z" fill="#263238"/>
<path d="M797.028 502.388C781.719 498.499 766.023 496.335 750.233 495.938C733.982 495.543 673.247 495.938 658.682 495.938C641.093 495.912 623.571 498.079 606.518 502.388C595.803 505.114 599.111 520.594 608.786 520.782C609.639 520.782 793.491 520.782 794.177 520.782C804.289 521.219 807.972 505.176 797.028 502.388Z" fill="#000045"/>
<path opacity="0.3" d="M797.028 502.388C781.719 498.499 766.023 496.335 750.233 495.938C733.982 495.543 673.247 495.938 658.682 495.938C641.093 495.912 623.571 498.079 606.518 502.388C595.803 505.114 599.111 520.594 608.786 520.782C609.639 520.782 793.491 520.782 794.177 520.782C804.289 521.219 807.972 505.176 797.028 502.388Z" fill="black"/>
<path d="M611.47 520.449C642.472 512.563 674.954 512.563 705.955 520.449C717.649 523.424 722.601 505.363 710.928 502.388C676.661 493.69 640.764 493.69 606.498 502.388C594.825 505.363 599.777 523.424 611.47 520.449Z" fill="#000045"/>
<g opacity="0.4">
<path d="M611.47 520.449C642.472 512.563 674.954 512.563 705.955 520.449C717.649 523.424 722.601 505.363 710.928 502.388C676.661 493.69 640.764 493.69 606.498 502.388C594.825 505.363 599.777 523.424 611.47 520.449Z" fill="white"/>
</g>
<path d="M747.84 368.391C746.79 368.367 745.754 368.632 744.844 369.157C743.934 369.682 743.186 370.446 742.68 371.366C717.964 412.823 709.094 461.827 717.711 509.317C717.844 510.516 718.402 511.629 719.283 512.453C720.165 513.277 721.312 513.759 722.518 513.811C726.284 514.082 793.033 513.811 795.342 513.811C796.331 513.834 797.313 513.638 798.217 513.238C799.121 512.837 799.926 512.242 800.574 511.495C801.222 510.748 801.697 509.867 801.965 508.915C802.233 507.963 802.288 506.963 802.126 505.988C794.339 461.743 802.776 416.174 825.887 377.65C828.738 372.906 824.535 368.453 820.29 368.37C818.397 368.349 752.168 368.474 747.84 368.391Z" fill="#000045"/>
<path opacity="0.2" d="M747.84 368.391C746.79 368.367 745.754 368.632 744.844 369.157C743.934 369.682 743.186 370.446 742.68 371.366C717.964 412.823 709.094 461.827 717.711 509.317C717.844 510.516 718.402 511.629 719.283 512.453C720.165 513.277 721.312 513.759 722.518 513.811C726.284 514.082 793.033 513.811 795.342 513.811C796.331 513.834 797.313 513.638 798.217 513.238C799.121 512.837 799.926 512.242 800.574 511.495C801.222 510.748 801.697 509.867 801.965 508.915C802.233 507.963 802.288 506.963 802.126 505.988C794.339 461.743 802.776 416.174 825.887 377.65C828.738 372.906 824.535 368.453 820.29 368.37C818.397 368.349 752.168 368.474 747.84 368.391Z" fill="black"/>
<path d="M729.696 506.008C721.898 461.764 730.336 416.191 753.458 377.671C757.619 370.763 746.82 364.479 742.68 371.428C717.964 412.885 709.094 461.889 717.711 509.379C719.147 517.286 731.173 513.936 729.759 506.071L729.696 506.008Z" fill="#000045"/>
<g opacity="0.4">
<path d="M729.696 506.008C721.898 461.764 730.336 416.191 753.458 377.671C757.619 370.763 746.82 364.479 742.68 371.428C717.964 412.885 709.094 461.889 717.711 509.379C719.147 517.286 731.173 513.936 729.759 506.071L729.696 506.008Z" fill="white"/>
</g>
<path d="M647.945 451.723L712.26 510.503C716.692 514.664 723.35 507.964 718.876 503.886L654.562 445.065C650.13 441.007 643.492 447.603 647.945 451.681V451.723Z" fill="#263238"/>
<g opacity="0.5">
<path d="M647.945 451.723L712.26 510.503C716.692 514.664 723.35 507.964 718.876 503.886L654.562 445.065C650.13 441.007 643.492 447.603 647.945 451.681V451.723Z" fill="white"/>
</g>
<path opacity="0.2" d="M654.562 445.106C650.13 441.049 643.492 447.645 647.945 451.723L660.242 462.98H674.1L654.562 445.106Z" fill="black"/>
<path d="M614.404 454.657H702.668C710.699 454.657 710.699 442.172 702.668 442.172H614.404C606.373 442.172 606.352 454.657 614.404 454.657Z" fill="#000045"/>
<g opacity="0.3">
<path d="M614.404 454.657H702.668C710.699 454.657 710.699 442.172 702.668 442.172H614.404C606.373 442.172 606.352 454.657 614.404 454.657Z" fill="white"/>
</g>
</svg>
